<svg width="20" height="12" viewBox="0 0 20 12" fill="none" xmlns="http://www.w3.org/2000/svg">
<g clip-path="url(#clip0)">
<path d="M13.9989 11.9999C13.8253 11.9996 13.6556 11.9479 13.5113 11.8514C13.3669 11.7549 13.2544 11.6178 13.1878 11.4574C13.1211 11.2971 13.1035 11.1206 13.1369 10.9502C13.1704 10.7798 13.2536 10.6231 13.3759 10.4999L17.91 5.96591L13.3759 1.4999C13.2933 1.41809 13.2277 1.32081 13.1827 1.21362C13.1377 1.10642 13.1142 0.991406 13.1137 0.875148C13.1131 0.758889 13.1354 0.643659 13.1794 0.536036C13.2234 0.428414 13.2881 0.330506 13.3699 0.247904C13.4518 0.165303 13.549 0.0996265 13.6562 0.0546214C13.7634 0.00961626 13.8784 -0.013837 13.9947 -0.0143941C14.111 -0.0149513 14.2262 0.00739562 14.3338 0.0513713C14.4414 0.0953469 14.5393 0.160094 14.6219 0.241908L19.7479 5.36791C19.9122 5.53364 20.0044 5.75756 20.0044 5.99091C20.0044 6.22426 19.9122 6.44817 19.7479 6.61391L14.6219 11.7419C14.4574 11.9062 14.2345 11.9986 14.0019 11.9989L13.9989 11.9999Z" fill="#FF4B36"/>
<path d="M0.970947 6.87683C0.847839 6.88929 0.723497 6.87579 0.605927 6.83722C0.488356 6.79864 0.380187 6.73585 0.288391 6.65288C0.196595 6.5699 0.123218 6.4686 0.072998 6.35551C0.0227779 6.24243 -0.00317383 6.12007 -0.00317383 5.99633C-0.00317383 5.87259 0.0227779 5.75022 0.072998 5.63714C0.123218 5.52405 0.196595 5.42275 0.288391 5.33978C0.380187 5.25681 0.488356 5.19401 0.605927 5.15543C0.723497 5.11686 0.847839 5.10337 0.970947 5.11583H19.028C19.1511 5.10337 19.2754 5.11686 19.393 5.15543C19.5106 5.19401 19.6187 5.25681 19.7105 5.33978C19.8023 5.42275 19.8757 5.52405 19.9259 5.63714C19.9762 5.75022 20.0021 5.87259 20.0021 5.99633C20.0021 6.12007 19.9762 6.24243 19.9259 6.35551C19.8757 6.4686 19.8023 6.5699 19.7105 6.65288C19.6187 6.73585 19.5106 6.79864 19.393 6.83722C19.2754 6.87579 19.1511 6.88929 19.028 6.87683H0.970947Z" fill="#FF4B36"/>
</g>
<defs>
<clipPath id="clip0">
<rect width="20" height="12" fill="white"/>
</clipPath>
</defs>
</svg>
