<svg xmlns="http://www.w3.org/2000/svg" width="136" height="136" viewBox="0 0 136 136">
  <path id="Dots_small" data-name="Dots small" d="M130,133a3,3,0,1,1,3,3A3,3,0,0,1,130,133Zm-26,0a3,3,0,1,1,3,3A3,3,0,0,1,104,133Zm-26,0a3,3,0,1,1,3,3A3,3,0,0,1,78,133Zm-26,0a3,3,0,1,1,3,3A3,3,0,0,1,52,133Zm-26,0a3,3,0,1,1,3,3A3,3,0,0,1,26,133ZM0,133a3,3,0,1,1,3,3A3,3,0,0,1,0,133Zm130-26a3,3,0,1,1,3,3A3,3,0,0,1,130,107Zm-26,0a3,3,0,1,1,3,3A3,3,0,0,1,104,107Zm-26,0a3,3,0,1,1,3,3A3,3,0,0,1,78,107Zm-26,0a3,3,0,1,1,3,3A3,3,0,0,1,52,107Zm-26,0a3,3,0,1,1,3,3A3,3,0,0,1,26,107ZM0,107a3,3,0,1,1,3,3A3,3,0,0,1,0,107ZM130,81a3,3,0,1,1,3,3A3,3,0,0,1,130,81Zm-26,0a3,3,0,1,1,3,3A3,3,0,0,1,104,81ZM78,81a3,3,0,1,1,3,3A3,3,0,0,1,78,81ZM52,81a3,3,0,1,1,3,3A3,3,0,0,1,52,81ZM26,81a3,3,0,1,1,3,3A3,3,0,0,1,26,81ZM0,81a3,3,0,1,1,3,3A3,3,0,0,1,0,81ZM130,55a3,3,0,1,1,3,3A3,3,0,0,1,130,55Zm-26,0a3,3,0,1,1,3,3A3,3,0,0,1,104,55ZM78,55a3,3,0,1,1,3,3A3,3,0,0,1,78,55ZM52,55a3,3,0,1,1,3,3A3,3,0,0,1,52,55ZM26,55a3,3,0,1,1,3,3A3,3,0,0,1,26,55ZM0,55a3,3,0,1,1,3,3A3,3,0,0,1,0,55ZM130,29a3,3,0,1,1,3,3A3,3,0,0,1,130,29Zm-26,0a3,3,0,1,1,3,3A3,3,0,0,1,104,29ZM78,29a3,3,0,1,1,3,3A3,3,0,0,1,78,29ZM52,29a3,3,0,1,1,3,3A3,3,0,0,1,52,29ZM26,29a3,3,0,1,1,3,3A3,3,0,0,1,26,29ZM0,29a3,3,0,1,1,3,3A3,3,0,0,1,0,29ZM130,3a3,3,0,1,1,3,3A3,3,0,0,1,130,3ZM104,3a3,3,0,1,1,3,3A3,3,0,0,1,104,3ZM78,3a3,3,0,1,1,3,3A3,3,0,0,1,78,3ZM52,3a3,3,0,1,1,3,3A3,3,0,0,1,52,3ZM26,3a3,3,0,1,1,3,3A3,3,0,0,1,26,3ZM0,3A3,3,0,1,1,3,6,3,3,0,0,1,0,3Z" fill="#daff6e"/>
</svg>
