<svg xmlns="http://www.w3.org/2000/svg" width="170" height="170" viewBox="0 0 170 170">
  <path id="Dots_medium_Blue" data-name="Dots medium Blue" d="M162.5,3.749A3.751,3.751,0,1,0,166.25,0,3.75,3.75,0,0,0,162.5,3.749Zm-32.5,0A3.75,3.75,0,1,0,133.749,0,3.749,3.749,0,0,0,130,3.749Zm-32.5,0A3.751,3.751,0,1,0,101.25,0,3.751,3.751,0,0,0,97.5,3.749Zm-32.5,0A3.75,3.75,0,1,0,68.751,0,3.75,3.75,0,0,0,65,3.749Zm-32.5,0A3.751,3.751,0,1,0,36.25,0,3.751,3.751,0,0,0,32.5,3.749ZM0,3.749A3.75,3.75,0,1,0,3.751,0,3.75,3.75,0,0,0,0,3.749Zm162.5,32.5A3.751,3.751,0,1,0,166.25,32.5,3.75,3.75,0,0,0,162.5,36.248Zm-32.5,0a3.75,3.75,0,1,0,3.748-3.749A3.749,3.749,0,0,0,130,36.248Zm-32.5,0A3.751,3.751,0,1,0,101.25,32.5,3.751,3.751,0,0,0,97.5,36.248Zm-32.5,0A3.75,3.75,0,1,0,68.751,32.5,3.75,3.75,0,0,0,65,36.248Zm-32.5,0A3.751,3.751,0,1,0,36.25,32.5,3.751,3.751,0,0,0,32.5,36.248Zm-32.5,0A3.75,3.75,0,1,0,3.751,32.5,3.75,3.75,0,0,0,0,36.248Zm162.5,32.5A3.751,3.751,0,1,0,166.25,65,3.75,3.75,0,0,0,162.5,68.749Zm-32.5,0A3.75,3.75,0,1,0,133.749,65,3.749,3.749,0,0,0,130,68.749Zm-32.5,0A3.751,3.751,0,1,0,101.25,65,3.751,3.751,0,0,0,97.5,68.749Zm-32.5,0A3.75,3.75,0,1,0,68.751,65,3.75,3.75,0,0,0,65,68.749Zm-32.5,0A3.751,3.751,0,1,0,36.25,65,3.751,3.751,0,0,0,32.5,68.749Zm-32.5,0A3.75,3.75,0,1,0,3.751,65,3.75,3.75,0,0,0,0,68.749Zm162.5,32.5A3.751,3.751,0,1,0,166.25,97.5,3.75,3.75,0,0,0,162.5,101.248Zm-32.5,0a3.75,3.75,0,1,0,3.748-3.749A3.749,3.749,0,0,0,130,101.248Zm-32.5,0A3.751,3.751,0,1,0,101.25,97.5,3.751,3.751,0,0,0,97.5,101.248Zm-32.5,0A3.75,3.75,0,1,0,68.751,97.5,3.75,3.75,0,0,0,65,101.248Zm-32.5,0A3.751,3.751,0,1,0,36.25,97.5,3.751,3.751,0,0,0,32.5,101.248Zm-32.5,0A3.75,3.75,0,1,0,3.751,97.5,3.75,3.75,0,0,0,0,101.248Zm162.5,32.5A3.751,3.751,0,1,0,166.25,130,3.75,3.75,0,0,0,162.5,133.75Zm-32.5,0A3.75,3.75,0,1,0,133.749,130,3.749,3.749,0,0,0,130,133.75Zm-32.5,0A3.751,3.751,0,1,0,101.25,130,3.751,3.751,0,0,0,97.5,133.75Zm-32.5,0A3.75,3.75,0,1,0,68.751,130,3.75,3.75,0,0,0,65,133.75Zm-32.5,0A3.751,3.751,0,1,0,36.25,130,3.751,3.751,0,0,0,32.5,133.75Zm-32.5,0A3.75,3.75,0,1,0,3.751,130,3.75,3.75,0,0,0,0,133.75Zm162.5,32.5a3.751,3.751,0,1,0,3.751-3.749A3.75,3.75,0,0,0,162.5,166.249Zm-32.5,0a3.75,3.75,0,1,0,3.748-3.749A3.749,3.749,0,0,0,130,166.249Zm-32.5,0a3.751,3.751,0,1,0,3.751-3.749A3.751,3.751,0,0,0,97.5,166.249Zm-32.5,0a3.75,3.75,0,1,0,3.751-3.749A3.75,3.75,0,0,0,65,166.249Zm-32.5,0A3.751,3.751,0,1,0,36.25,162.5,3.751,3.751,0,0,0,32.5,166.249Zm-32.5,0A3.75,3.75,0,1,0,3.751,162.5,3.75,3.75,0,0,0,0,166.249Z" transform="translate(170 170) rotate(180)" fill="#daff6e" opacity="1"/>
</svg>
