<svg xmlns="http://www.w3.org/2000/svg" width="170" height="170" viewBox="0 0 170 170">
  <path id="Dots_medium" data-name="Dots medium" d="M162.5,166.251A3.751,3.751,0,1,1,166.25,170,3.75,3.75,0,0,1,162.5,166.251Zm-32.5,0A3.75,3.75,0,1,1,133.749,170,3.749,3.749,0,0,1,130,166.251Zm-32.5,0A3.751,3.751,0,1,1,101.25,170,3.751,3.751,0,0,1,97.5,166.251Zm-32.5,0A3.75,3.75,0,1,1,68.751,170,3.75,3.75,0,0,1,65,166.251Zm-32.5,0A3.751,3.751,0,1,1,36.25,170,3.751,3.751,0,0,1,32.5,166.251Zm-32.5,0A3.75,3.75,0,1,1,3.751,170,3.75,3.75,0,0,1,0,166.251Zm162.5-32.5a3.751,3.751,0,1,1,3.751,3.749A3.75,3.75,0,0,1,162.5,133.752Zm-32.5,0a3.75,3.75,0,1,1,3.748,3.749A3.749,3.749,0,0,1,130,133.752Zm-32.5,0a3.751,3.751,0,1,1,3.751,3.749A3.751,3.751,0,0,1,97.5,133.752Zm-32.5,0a3.75,3.75,0,1,1,3.751,3.749A3.75,3.75,0,0,1,65,133.752Zm-32.5,0A3.751,3.751,0,1,1,36.25,137.5,3.751,3.751,0,0,1,32.5,133.752Zm-32.5,0A3.75,3.75,0,1,1,3.751,137.5,3.75,3.75,0,0,1,0,133.752Zm162.5-32.5A3.751,3.751,0,1,1,166.25,105,3.75,3.75,0,0,1,162.5,101.25Zm-32.5,0A3.75,3.75,0,1,1,133.749,105,3.749,3.749,0,0,1,130,101.25Zm-32.5,0A3.751,3.751,0,1,1,101.25,105,3.751,3.751,0,0,1,97.5,101.25Zm-32.5,0A3.75,3.75,0,1,1,68.751,105,3.75,3.75,0,0,1,65,101.25Zm-32.5,0A3.751,3.751,0,1,1,36.25,105,3.751,3.751,0,0,1,32.5,101.25Zm-32.5,0A3.75,3.75,0,1,1,3.751,105,3.75,3.75,0,0,1,0,101.25Zm162.5-32.5A3.751,3.751,0,1,1,166.25,72.5,3.75,3.75,0,0,1,162.5,68.751Zm-32.5,0a3.75,3.75,0,1,1,3.748,3.749A3.749,3.749,0,0,1,130,68.751Zm-32.5,0A3.751,3.751,0,1,1,101.25,72.5,3.751,3.751,0,0,1,97.5,68.751Zm-32.5,0A3.75,3.75,0,1,1,68.751,72.5,3.75,3.75,0,0,1,65,68.751Zm-32.5,0A3.751,3.751,0,1,1,36.25,72.5,3.751,3.751,0,0,1,32.5,68.751Zm-32.5,0A3.75,3.75,0,1,1,3.751,72.5,3.75,3.75,0,0,1,0,68.751Zm162.5-32.5A3.751,3.751,0,1,1,166.25,40,3.75,3.75,0,0,1,162.5,36.25Zm-32.5,0A3.75,3.75,0,1,1,133.749,40,3.749,3.749,0,0,1,130,36.25Zm-32.5,0A3.751,3.751,0,1,1,101.25,40,3.751,3.751,0,0,1,97.5,36.25Zm-32.5,0A3.75,3.75,0,1,1,68.751,40,3.75,3.75,0,0,1,65,36.25Zm-32.5,0A3.751,3.751,0,1,1,36.25,40,3.751,3.751,0,0,1,32.5,36.25ZM0,36.25A3.75,3.75,0,1,1,3.751,40,3.75,3.75,0,0,1,0,36.25Zm162.5-32.5A3.751,3.751,0,1,1,166.25,7.5,3.75,3.75,0,0,1,162.5,3.751Zm-32.5,0A3.75,3.75,0,1,1,133.749,7.5,3.749,3.749,0,0,1,130,3.751Zm-32.5,0A3.751,3.751,0,1,1,101.25,7.5,3.751,3.751,0,0,1,97.5,3.751Zm-32.5,0A3.75,3.75,0,1,1,68.751,7.5,3.75,3.75,0,0,1,65,3.751Zm-32.5,0A3.751,3.751,0,1,1,36.25,7.5,3.751,3.751,0,0,1,32.5,3.751ZM0,3.751A3.75,3.75,0,1,1,3.751,7.5,3.75,3.75,0,0,1,0,3.751Z" fill="#454545" opacity="0.1"/>
</svg>
