<svg xmlns="http://www.w3.org/2000/svg" width="80" height="70" viewBox="0 0 80 70">
  <g id="Feature_1_icon" data-name="Feature 1 icon" transform="translate(-810 -1379)">
    <circle id="Ellipse_199" data-name="Ellipse 199" cx="25" cy="25" r="25" transform="translate(810 1379)" fill="#D788C8" opacity="0.5"/>
    <circle id="Ellipse_276" data-name="Ellipse 276" cx="25" cy="25" r="25" transform="translate(840 1399)" fill="#daff6e" opacity="0.6"/>
    <path id="Icon1" d="M230.863,54.26a1.148,1.148,0,0,0-.588-.589L221.1,49.848l.882-2.118a4.446,4.446,0,0,0,0-3.47,4.717,4.717,0,0,0-2.412-2.471,4.5,4.5,0,0,0-5.882,2.412l-.883,2.117-9.176-3.823a1.153,1.153,0,0,0-1.471.588l-4.235,10.236a1.12,1.12,0,0,0,.588,1.47l3.118,1.294a2.132,2.132,0,0,1,1.235,1.236,2.286,2.286,0,0,1,0,1.764,2.135,2.135,0,0,1-1.235,1.236,2.3,2.3,0,0,1-1.765,0l-3.117-1.3a1.152,1.152,0,0,0-1.471.589L191.04,69.848a1.121,1.121,0,0,0,.588,1.471l9.176,3.823-.882,2.118a4.437,4.437,0,0,0,0,3.47,4.717,4.717,0,0,0,2.412,2.471,4.665,4.665,0,0,0,1.706.353,4.543,4.543,0,0,0,4.176-2.765l.883-2.118,9.176,3.824a1.153,1.153,0,0,0,1.471-.588l4.235-10.236a1.12,1.12,0,0,0-.588-1.47l-3.118-1.294a2.132,2.132,0,0,1-1.235-1.236,2.286,2.286,0,0,1,0-1.764,2.135,2.135,0,0,1,1.235-1.236,2.3,2.3,0,0,1,1.765,0l3.117,1.3a1.152,1.152,0,0,0,1.471-.589l4.235-10.235A1.14,1.14,0,0,0,230.863,54.26Zm-5.882,9.176-2.118-.882a4.437,4.437,0,0,0-3.47,0,4.714,4.714,0,0,0-2.471,2.412,4.437,4.437,0,0,0,0,3.47,4.717,4.717,0,0,0,2.412,2.471l2.117.882-3.411,8.118-9.177-3.824a1.12,1.12,0,0,0-1.47.588L206.1,79.789a2.294,2.294,0,0,1-3,1.235,2.132,2.132,0,0,1-1.236-1.235,2.3,2.3,0,0,1,0-1.765l1.294-3.117a1.12,1.12,0,0,0-.588-1.471l-9.176-3.823,3.411-8.118,2.118.882a4.44,4.44,0,0,0,3.471,0,4.714,4.714,0,0,0,2.47-2.411,4.44,4.44,0,0,0,0-3.471,4.714,4.714,0,0,0-2.412-2.471l-2.117-.882,3.412-8.118,9.176,3.824a1.121,1.121,0,0,0,1.471-.588l1.294-3.118a2.294,2.294,0,0,1,3-1.235,2.13,2.13,0,0,1,1.235,1.235,2.3,2.3,0,0,1,0,1.765l-1.353,3.059a1.12,1.12,0,0,0,.588,1.47l9.177,3.824Z" transform="translate(639.049 1351.554)" fill="#454545"/>
  </g>
</svg>
