<svg xmlns="http://www.w3.org/2000/svg" width="80" height="70" viewBox="0 0 80 70">
  <g id="Feature_2_icon" data-name="Feature 2 icon" transform="translate(-810 -1559)">
    <circle id="Ellipse_200" data-name="Ellipse 200" cx="25" cy="25" r="25" transform="translate(810 1559)" fill="#D788C8" opacity="0.5"/>
    <circle id="Ellipse_277" data-name="Ellipse 277" cx="25" cy="25" r="25" transform="translate(840 1579)" fill="#daff6e" opacity="0.6"/>
    <g id="Icon2" transform="translate(588.779 1531.729)">
      <path id="Path_3619" data-name="Path 3619" d="M273.411,50.282a.475.475,0,0,1,.5.5v9.7a.5.5,0,0,0,.352.5h.1a.91.91,0,0,0,.453-.2,5.886,5.886,0,0,1,4.374-2.263c2.212,0,3.017,2.112,3.017,3.922s-.8,3.922-3.017,3.922a5.89,5.89,0,0,1-4.374-2.263.449.449,0,0,0-.4-.251.187.187,0,0,0-.151.05.6.6,0,0,0-.352.5v9.8a.475.475,0,0,1-.5.5h-8.5a6.776,6.776,0,0,0,1.71-4.274c0-2.413-1.961-4.022-4.927-4.022s-4.928,1.609-4.928,4.022a7.065,7.065,0,0,0,1.71,4.274h-8.447a.475.475,0,0,1-.5-.5V64.461a.5.5,0,0,0-.352-.5h-.151c-.151,0-.352.05-.4.2a5.891,5.891,0,0,1-4.374,2.263c-2.213,0-3.017-2.112-3.017-3.922s.8-3.922,3.017-3.922a5.891,5.891,0,0,1,4.374,2.263.457.457,0,0,0,.4.2h.151a.607.607,0,0,0,.352-.5V50.785a.475.475,0,0,1,.5-.5h8.346a7.07,7.07,0,0,0-1.709,4.274c0,2.413,1.961,4.022,4.927,4.022s4.927-1.609,4.927-4.022a7.064,7.064,0,0,0-1.709-4.274h8.6m-15.034,0h0m15.034-2.011h-8.6A1.941,1.941,0,0,0,263,49.427a2.1,2.1,0,0,0,.251,2.162,5.093,5.093,0,0,1,1.257,2.967c0,1.86-2.212,2.011-2.916,2.011s-2.916-.151-2.916-2.011a5,5,0,0,1,1.207-2.967,1.995,1.995,0,0,0-1.509-3.318h-8.346a2.489,2.489,0,0,0-2.514,2.514v6.637a7.71,7.71,0,0,0-3.268-.855c-2.967,0-5.028,2.464-5.028,5.933s2.061,5.933,5.028,5.933a7.045,7.045,0,0,0,3.268-.855v6.637a2.489,2.489,0,0,0,2.514,2.514h8.447a1.942,1.942,0,0,0,1.81-1.156,2.1,2.1,0,0,0-.252-2.162,5.093,5.093,0,0,1-1.257-2.967c0-1.86,2.213-2.011,2.917-2.011s2.916.151,2.916,2.011a4.775,4.775,0,0,1-1.207,2.967,2,2,0,0,0,1.508,3.318h8.5a2.489,2.489,0,0,0,2.514-2.514V67.528a7.71,7.71,0,0,0,3.268.855c2.966,0,5.028-2.464,5.028-5.933s-2.062-5.933-5.028-5.933a7.033,7.033,0,0,0-3.268.855V50.785a2.489,2.489,0,0,0-2.514-2.514Z" fill="#454545"/>
    </g>
  </g>
</svg>
