<svg xmlns="http://www.w3.org/2000/svg" width="80" height="70" viewBox="0 0 80 70">
  <g id="Feature_3_icon" data-name="Feature 3 icon" transform="translate(-810 -1739)">
    <circle id="Ellipse_201" data-name="Ellipse 201" cx="25" cy="25" r="25" transform="translate(810 1739)" fill="#D788C8" opacity="0.5"/>
    <circle id="Ellipse_278" data-name="Ellipse 278" cx="25" cy="25" r="25" transform="translate(840 1759)" fill="#daff6e" opacity="0.6"/>
    <g id="Icon3_" data-name="Icon3 " transform="translate(538.923 1711.5)">
      <path id="Path_3617" data-name="Path 3617" d="M315.692,42.5a6.17,6.17,0,0,0-6.154,6.154,6.068,6.068,0,0,0,.866,3.077h-9.071a1.025,1.025,0,0,0-1.025,1.025v9.055a6.066,6.066,0,0,0-3.077-.849,6.153,6.153,0,1,0,0,12.307,6.08,6.08,0,0,0,3.077-.865v9.07a1.025,1.025,0,0,0,1.025,1.026h28.718a1.026,1.026,0,0,0,1.026-1.026V70.192a1.026,1.026,0,0,0-1.843-.625,4.094,4.094,0,1,1,0-4.92,1.026,1.026,0,0,0,1.843-.609V52.756a1.025,1.025,0,0,0-1.026-1.025h-9.07a6.076,6.076,0,0,0,.865-3.077A6.169,6.169,0,0,0,315.692,42.5Zm0,2.051a4.088,4.088,0,0,1,4.1,4.1,4.045,4.045,0,0,1-1.635,3.269,1.026,1.026,0,0,0,.609,1.859h10.257v8.029a6.066,6.066,0,0,0-3.077-.849,6.153,6.153,0,1,0,0,12.307,6.079,6.079,0,0,0,3.077-.865v8.045H302.359V70.192a1.026,1.026,0,0,0-1.843-.625,4.094,4.094,0,1,1,0-4.92,1.026,1.026,0,0,0,1.843-.609V53.782h10.256a1.026,1.026,0,0,0,.609-1.859,4.044,4.044,0,0,1-1.634-3.269A4.087,4.087,0,0,1,315.692,44.551Z" fill="#454545"/>
    </g>
  </g>
</svg>
