<svg xmlns="http://www.w3.org/2000/svg" xmlns:xlink="http://www.w3.org/1999/xlink" width="1920" height="950" viewBox="0 0 1920 950">
  <defs>
    <clipPath id="clip-path">
      <rect id="BG" width="1920" height="950" fill="#fff"/>
    </clipPath>
    <clipPath id="clip-path-2">
      <rect id="Rectangle_33" data-name="Rectangle 33" width="1200" height="928" rx="100" transform="translate(1334.694 -566.366) rotate(30)" fill="#454545"/>
    </clipPath>
  </defs>
  <g id="Hero_background" data-name="Hero background" clip-path="url(#clip-path)">
    <g id="Mockup_BG" data-name="Mockup BG" transform="translate(-32)">
      <circle id="Ellipse_198" data-name="Ellipse 198" cx="176.5" cy="176.5" r="176.5" transform="matrix(0.951, 0.309, -0.309, 0.951, 1738.303, 393.208)" fill="#D788C8" opacity="0.05"/>
      <circle id="Ellipse_7" data-name="Ellipse 7" cx="327.5" cy="327.5" r="327.5" transform="matrix(0.951, 0.309, -0.309, 0.951, 1125.355, 89.936)" fill="#D788C8" opacity="0.05"/>
      <g id="Rectangle_31" data-name="Rectangle 31" transform="translate(1375.965 -472.921) rotate(48)" fill="#daff6e" stroke="#d9e2ef" stroke-width="1">
        <rect width="1200" height="812" rx="100" stroke="none"/>
        <rect x="0.5" y="0.5" width="1199" height="811" rx="99.5" fill="none"/>
      </g>
      <rect id="Rectangle_30" data-name="Rectangle 30" width="1200" height="928" rx="100" transform="translate(1464.041 -597.57) rotate(48)" fill="#454545"/>
      <g id="Mask_Group_1" data-name="Mask Group 1" transform="matrix(0.951, 0.309, -0.309, 0.951, 19.654, -471.367)" clip-path="url(#clip-path-2)">
        <g id="Round">
          <circle id="Ellipse_4" data-name="Ellipse 4" cx="166" cy="166" r="166" transform="translate(847 -56)" fill="#daff6e" opacity="0.03"/>
          <circle id="Ellipse_5" data-name="Ellipse 5" cx="451" cy="451" r="451" transform="translate(1290 -32)" fill="#daff6e" opacity="0.05"/>
          <circle id="Ellipse_6" data-name="Ellipse 6" cx="451" cy="451" r="451" transform="translate(1110 -661)" fill="#daff6e" opacity="0.07"/>
        </g>
      </g>
      <rect id="Rectangle_32" data-name="Rectangle 32" width="100" height="3" rx="1.5" transform="translate(1448.917 817.94) rotate(48)" fill="#454545"/>
    </g>
  </g>
</svg>
