<svg width="150" height="620" viewBox="0 0 150 620" fill="none" xmlns="http://www.w3.org/2000/svg">
<g id="Frame 1" clip-path="url(#clip0)">
<path id="My Wallet" d="M21.1172 78.9375L25.5 91.3125L29.8594 78.9375H34.4766V96H30.9492V91.3359L31.3008 83.2852L26.6953 96H24.2812L19.6875 83.2969L20.0391 91.3359V96H16.5234V78.9375H21.1172ZM42.0586 91.207L44.4023 83.3203H48.0352L42.9375 97.9688L42.6562 98.6367C41.8984 100.293 40.6484 101.121 38.9062 101.121C38.4141 101.121 37.9141 101.047 37.4062 100.898V98.332L37.9219 98.3438C38.5625 98.3438 39.0391 98.2461 39.3516 98.0508C39.6719 97.8555 39.9219 97.5312 40.1016 97.0781L40.5 96.0352L36.0586 83.3203H39.7031L42.0586 91.207ZM68.8594 91.0781L71.1562 78.9375H74.6602L70.875 96H67.3359L64.5586 84.5859L61.7812 96H58.2422L54.457 78.9375H57.9609L60.2695 91.0547L63.082 78.9375H66.0586L68.8594 91.0781ZM83.2969 96C83.1406 95.6953 83.0273 95.3164 82.957 94.8633C82.1367 95.7773 81.0703 96.2344 79.7578 96.2344C78.5156 96.2344 77.4844 95.875 76.6641 95.1562C75.8516 94.4375 75.4453 93.5312 75.4453 92.4375C75.4453 91.0938 75.9414 90.0625 76.9336 89.3438C77.9336 88.625 79.375 88.2617 81.2578 88.2539H82.8164V87.5273C82.8164 86.9414 82.6641 86.4727 82.3594 86.1211C82.0625 85.7695 81.5898 85.5938 80.9414 85.5938C80.3711 85.5938 79.9219 85.7305 79.5938 86.0039C79.2734 86.2773 79.1133 86.6523 79.1133 87.1289H75.7266C75.7266 86.3945 75.9531 85.7148 76.4062 85.0898C76.8594 84.4648 77.5 83.9766 78.3281 83.625C79.1562 83.2656 80.0859 83.0859 81.1172 83.0859C82.6797 83.0859 83.918 83.4805 84.832 84.2695C85.7539 85.0508 86.2148 86.1523 86.2148 87.5742V93.0703C86.2227 94.2734 86.3906 95.1836 86.7188 95.8008V96H83.2969ZM80.4961 93.6445C80.9961 93.6445 81.457 93.5352 81.8789 93.3164C82.3008 93.0898 82.6133 92.7891 82.8164 92.4141V90.2344H81.5508C79.8555 90.2344 78.9531 90.8203 78.8438 91.9922L78.832 92.1914C78.832 92.6133 78.9805 92.9609 79.2773 93.2344C79.5742 93.5078 79.9805 93.6445 80.4961 93.6445ZM92.3906 96H88.9922V78H92.3906V96ZM98.7656 96H95.3672V78H98.7656V96ZM107.402 96.2344C105.543 96.2344 104.027 95.6641 102.855 94.5234C101.691 93.3828 101.109 91.8633 101.109 89.9648V89.6367C101.109 88.3633 101.355 87.2266 101.848 86.2266C102.34 85.2188 103.035 84.4453 103.934 83.9062C104.84 83.3594 105.871 83.0859 107.027 83.0859C108.762 83.0859 110.125 83.6328 111.117 84.7266C112.117 85.8203 112.617 87.3711 112.617 89.3789V90.7617H104.543C104.652 91.5898 104.98 92.2539 105.527 92.7539C106.082 93.2539 106.781 93.5039 107.625 93.5039C108.93 93.5039 109.949 93.0312 110.684 92.0859L112.348 93.9492C111.84 94.668 111.152 95.2305 110.285 95.6367C109.418 96.0352 108.457 96.2344 107.402 96.2344ZM107.016 85.8281C106.344 85.8281 105.797 86.0547 105.375 86.5078C104.961 86.9609 104.695 87.6094 104.578 88.4531H109.289V88.1836C109.273 87.4336 109.07 86.8555 108.68 86.4492C108.289 86.0352 107.734 85.8281 107.016 85.8281ZM118.605 80.2031V83.3203H120.773V85.8047H118.605V92.1328C118.605 92.6016 118.695 92.9375 118.875 93.1406C119.055 93.3438 119.398 93.4453 119.906 93.4453C120.281 93.4453 120.613 93.418 120.902 93.3633V95.9297C120.238 96.1328 119.555 96.2344 118.852 96.2344C116.477 96.2344 115.266 95.0352 115.219 92.6367V85.8047H113.367V83.3203H115.219V80.2031H118.605Z" fill="#DAFF6E"/>
<path id="Account Overview" d="M21.583 177.683H17.7275L16.9209 180H15.123L18.8828 170.047H20.4346L24.2012 180H22.3965L21.583 177.683ZM18.2129 176.288H21.0977L19.6553 172.159L18.2129 176.288ZM28.2139 178.811C28.6286 178.811 28.9727 178.69 29.2461 178.448C29.5195 178.207 29.6654 177.908 29.6836 177.553H31.249C31.2308 178.013 31.0872 178.444 30.8184 178.845C30.5495 179.241 30.1849 179.556 29.7246 179.788C29.2643 180.021 28.7676 180.137 28.2344 180.137C27.1999 180.137 26.3796 179.802 25.7734 179.132C25.1673 178.462 24.8643 177.537 24.8643 176.356V176.186C24.8643 175.06 25.165 174.16 25.7666 173.485C26.3682 172.806 27.1885 172.467 28.2275 172.467C29.1071 172.467 29.8226 172.724 30.374 173.239C30.93 173.75 31.2217 174.422 31.249 175.256H29.6836C29.6654 174.832 29.5195 174.483 29.2461 174.21C28.9772 173.937 28.6331 173.8 28.2139 173.8C27.6761 173.8 27.2614 173.996 26.9697 174.388C26.6781 174.775 26.5299 175.365 26.5254 176.158V176.425C26.5254 177.227 26.6689 177.826 26.9561 178.223C27.2477 178.615 27.667 178.811 28.2139 178.811ZM35.542 178.811C35.9567 178.811 36.3008 178.69 36.5742 178.448C36.8477 178.207 36.9935 177.908 37.0117 177.553H38.5771C38.5589 178.013 38.4154 178.444 38.1465 178.845C37.8776 179.241 37.513 179.556 37.0527 179.788C36.5924 180.021 36.0957 180.137 35.5625 180.137C34.528 180.137 33.7077 179.802 33.1016 179.132C32.4954 178.462 32.1924 177.537 32.1924 176.356V176.186C32.1924 175.06 32.4932 174.16 33.0947 173.485C33.6963 172.806 34.5166 172.467 35.5557 172.467C36.4352 172.467 37.1507 172.724 37.7021 173.239C38.2581 173.75 38.5498 174.422 38.5771 175.256H37.0117C36.9935 174.832 36.8477 174.483 36.5742 174.21C36.3053 173.937 35.9613 173.8 35.542 173.8C35.0042 173.8 34.5895 173.996 34.2979 174.388C34.0062 174.775 33.8581 175.365 33.8535 176.158V176.425C33.8535 177.227 33.9971 177.826 34.2842 178.223C34.5758 178.615 34.9951 178.811 35.542 178.811ZM39.5205 176.233C39.5205 175.509 39.6641 174.857 39.9512 174.278C40.2383 173.695 40.6416 173.248 41.1611 172.938C41.6807 172.624 42.2777 172.467 42.9521 172.467C43.9502 172.467 44.7591 172.788 45.3789 173.431C46.0033 174.073 46.3405 174.925 46.3906 175.987L46.3975 176.377C46.3975 177.106 46.2562 177.758 45.9736 178.332C45.6956 178.906 45.2946 179.351 44.7705 179.665C44.251 179.979 43.6494 180.137 42.9658 180.137C41.9222 180.137 41.0859 179.79 40.457 179.098C39.8327 178.4 39.5205 177.473 39.5205 176.315V176.233ZM41.1816 176.377C41.1816 177.138 41.3389 177.735 41.6533 178.168C41.9678 178.596 42.4053 178.811 42.9658 178.811C43.5264 178.811 43.9616 178.592 44.2715 178.154C44.5859 177.717 44.7432 177.076 44.7432 176.233C44.7432 175.486 44.5814 174.894 44.2578 174.456C43.9388 174.019 43.5036 173.8 42.9521 173.8C42.4098 173.8 41.9792 174.016 41.6602 174.449C41.3411 174.878 41.1816 175.52 41.1816 176.377ZM52.2832 179.275C51.7956 179.85 51.1029 180.137 50.2051 180.137C49.403 180.137 48.7946 179.902 48.3799 179.433C47.9697 178.963 47.7646 178.284 47.7646 177.396V172.604H49.4258V177.375C49.4258 178.314 49.8154 178.783 50.5947 178.783C51.4014 178.783 51.946 178.494 52.2285 177.915V172.604H53.8896V180H52.3242L52.2832 179.275ZM57.123 172.604L57.1709 173.458C57.7178 172.797 58.4355 172.467 59.3242 172.467C60.8646 172.467 61.6484 173.349 61.6758 175.112V180H60.0146V175.208C60.0146 174.739 59.9121 174.392 59.707 174.169C59.5065 173.941 59.1761 173.827 58.7158 173.827C58.0459 173.827 57.5469 174.13 57.2188 174.736V180H55.5576V172.604H57.123ZM65.4561 170.806V172.604H66.7617V173.834H65.4561V177.963C65.4561 178.245 65.5107 178.451 65.6201 178.578C65.734 178.701 65.9346 178.763 66.2217 178.763C66.4131 178.763 66.6068 178.74 66.8027 178.694V179.979C66.4245 180.084 66.0599 180.137 65.709 180.137C64.4329 180.137 63.7949 179.433 63.7949 178.024V173.834H62.5781V172.604H63.7949V170.806H65.4561ZM83.1133 175.283C83.1133 176.258 82.9447 177.115 82.6074 177.854C82.2702 178.587 81.7871 179.152 81.1582 179.549C80.5339 179.941 79.8138 180.137 78.998 180.137C78.1914 180.137 77.4714 179.941 76.8379 179.549C76.209 179.152 75.7214 178.59 75.375 177.86C75.0332 177.131 74.86 176.29 74.8555 175.338V174.777C74.8555 173.807 75.0264 172.95 75.3682 172.207C75.7145 171.464 76.1999 170.897 76.8242 170.505C77.4531 170.108 78.1732 169.91 78.9844 169.91C79.7956 169.91 80.5133 170.106 81.1377 170.498C81.7666 170.885 82.252 171.446 82.5938 172.18C82.9355 172.909 83.1087 173.759 83.1133 174.729V175.283ZM81.3838 174.764C81.3838 173.661 81.1742 172.815 80.7549 172.228C80.3402 171.64 79.75 171.346 78.9844 171.346C78.237 171.346 77.6514 171.64 77.2275 172.228C76.8083 172.811 76.5941 173.638 76.585 174.709V175.283C76.585 176.377 76.7969 177.222 77.2207 177.819C77.6491 178.416 78.2415 178.715 78.998 178.715C79.7637 178.715 80.3516 178.423 80.7617 177.84C81.1764 177.257 81.3838 176.404 81.3838 175.283V174.764ZM87.2832 177.895L88.8486 172.604H90.5645L88.001 180H86.5586L83.9746 172.604H85.6973L87.2832 177.895ZM94.7686 180.137C93.7158 180.137 92.8613 179.806 92.2051 179.146C91.5534 178.48 91.2275 177.596 91.2275 176.493V176.288C91.2275 175.55 91.3688 174.891 91.6514 174.312C91.9385 173.729 92.3395 173.276 92.8545 172.952C93.3695 172.629 93.9437 172.467 94.5771 172.467C95.5843 172.467 96.3613 172.788 96.9082 173.431C97.4596 174.073 97.7354 174.982 97.7354 176.158V176.828H92.9023C92.9525 177.439 93.1553 177.922 93.5107 178.277C93.8708 178.633 94.3219 178.811 94.8643 178.811C95.6253 178.811 96.2451 178.503 96.7236 177.888L97.6191 178.742C97.3229 179.184 96.9264 179.528 96.4297 179.774C95.9375 180.016 95.3838 180.137 94.7686 180.137ZM94.5703 173.8C94.1146 173.8 93.7454 173.959 93.4629 174.278C93.1849 174.597 93.0072 175.042 92.9297 175.611H96.0947V175.488C96.0583 174.932 95.9102 174.513 95.6504 174.23C95.3906 173.943 95.0306 173.8 94.5703 173.8ZM102.903 174.121C102.685 174.085 102.459 174.066 102.227 174.066C101.465 174.066 100.953 174.358 100.688 174.941V180H99.0273V172.604H100.613L100.654 173.431C101.055 172.788 101.611 172.467 102.322 172.467C102.559 172.467 102.755 172.499 102.91 172.562L102.903 174.121ZM106.684 177.895L108.249 172.604H109.965L107.401 180H105.959L103.375 172.604H105.098L106.684 177.895ZM112.774 180H111.113V172.604H112.774V180ZM111.011 170.683C111.011 170.427 111.09 170.215 111.25 170.047C111.414 169.878 111.646 169.794 111.947 169.794C112.248 169.794 112.48 169.878 112.645 170.047C112.809 170.215 112.891 170.427 112.891 170.683C112.891 170.933 112.809 171.143 112.645 171.312C112.48 171.476 112.248 171.558 111.947 171.558C111.646 171.558 111.414 171.476 111.25 171.312C111.09 171.143 111.011 170.933 111.011 170.683ZM117.847 180.137C116.794 180.137 115.939 179.806 115.283 179.146C114.632 178.48 114.306 177.596 114.306 176.493V176.288C114.306 175.55 114.447 174.891 114.729 174.312C115.017 173.729 115.418 173.276 115.933 172.952C116.448 172.629 117.022 172.467 117.655 172.467C118.662 172.467 119.439 172.788 119.986 173.431C120.538 174.073 120.813 174.982 120.813 176.158V176.828H115.98C116.031 177.439 116.233 177.922 116.589 178.277C116.949 178.633 117.4 178.811 117.942 178.811C118.703 178.811 119.323 178.503 119.802 177.888L120.697 178.742C120.401 179.184 120.005 179.528 119.508 179.774C119.016 180.016 118.462 180.137 117.847 180.137ZM117.648 173.8C117.193 173.8 116.824 173.959 116.541 174.278C116.263 174.597 116.085 175.042 116.008 175.611H119.173V175.488C119.136 174.932 118.988 174.513 118.729 174.23C118.469 173.943 118.109 173.8 117.648 173.8ZM128.606 177.71L129.782 172.604H131.402L129.386 180H128.019L126.433 174.921L124.874 180H123.507L121.483 172.604H123.104L124.3 177.655L125.817 172.604H127.068L128.606 177.71Z" fill="white"/>
<path id="Rectangle 9" d="M11 212C11 206.477 15.4772 202 21 202H177C182.523 202 187 206.477 187 212V275C187 280.523 182.523 285 177 285H21C15.4772 285 11 280.523 11 275V212Z" fill="white" fill-opacity="0.2"/>
<path id="EUR 17, 200" d="M34.8418 232.454H29.7793V235.882H35.7207V238H27.1426V225.203H35.7031V227.339H29.7793V230.389H34.8418V232.454ZM46.9531 225.203V233.632C46.9531 235.032 46.5137 236.14 45.6348 236.954C44.7617 237.769 43.5664 238.176 42.0488 238.176C40.5547 238.176 39.3682 237.78 38.4893 236.989C37.6104 236.198 37.1621 235.111 37.1445 233.729V225.203H39.7812V233.649C39.7812 234.487 39.9805 235.1 40.3789 235.486C40.7832 235.867 41.3398 236.058 42.0488 236.058C43.5312 236.058 44.2842 235.278 44.3076 233.72V225.203H46.9531ZM53.8525 233.315H51.752V238H49.1152V225.203H53.8701C55.3818 225.203 56.5479 225.54 57.3682 226.214C58.1885 226.888 58.5986 227.84 58.5986 229.07C58.5986 229.943 58.4082 230.673 58.0273 231.259C57.6523 231.839 57.0811 232.302 56.3135 232.647L59.082 237.877V238H56.252L53.8525 233.315ZM51.752 231.18H53.8789C54.541 231.18 55.0537 231.013 55.417 230.679C55.7803 230.339 55.9619 229.873 55.9619 229.281C55.9619 228.678 55.7891 228.203 55.4434 227.857C55.1035 227.512 54.5791 227.339 53.8701 227.339H51.752V231.18ZM70.9912 238H68.4512V228.209L65.4189 229.149V227.084L70.7188 225.186H70.9912V238ZM83.8584 226.627L78.9102 238H76.2295L81.1865 227.26H74.8232V225.203H83.8584V226.627ZM86.2578 241.208L84.9307 240.514L85.2471 239.942C85.6396 239.228 85.8418 238.516 85.8535 237.807V235.838H87.998L87.9893 237.596C87.9834 238.246 87.8193 238.902 87.4971 239.564C87.1748 240.227 86.7617 240.774 86.2578 241.208ZM103.142 238H94.3701V236.26L98.5098 231.848C99.0781 231.227 99.4971 230.685 99.7666 230.222C100.042 229.759 100.18 229.319 100.18 228.903C100.18 228.335 100.036 227.89 99.749 227.567C99.4619 227.239 99.0518 227.075 98.5186 227.075C97.9443 227.075 97.4902 227.274 97.1562 227.673C96.8281 228.065 96.6641 228.584 96.6641 229.229H94.1152C94.1152 228.449 94.2998 227.737 94.6689 227.093C95.0439 226.448 95.5713 225.944 96.251 225.581C96.9307 225.212 97.7012 225.027 98.5625 225.027C99.8809 225.027 100.903 225.344 101.63 225.977C102.362 226.609 102.729 227.503 102.729 228.657C102.729 229.29 102.564 229.935 102.236 230.591C101.908 231.247 101.346 232.012 100.549 232.885L97.6396 235.952H103.142V238ZM113.319 232.709C113.319 234.479 112.953 235.832 112.221 236.77C111.488 237.707 110.416 238.176 109.004 238.176C107.609 238.176 106.543 237.716 105.805 236.796C105.066 235.876 104.688 234.558 104.671 232.841V230.485C104.671 228.698 105.04 227.342 105.778 226.416C106.522 225.49 107.592 225.027 108.986 225.027C110.381 225.027 111.447 225.487 112.186 226.407C112.924 227.321 113.302 228.637 113.319 230.354V232.709ZM110.779 230.125C110.779 229.064 110.633 228.294 110.34 227.813C110.053 227.327 109.602 227.084 108.986 227.084C108.389 227.084 107.946 227.315 107.659 227.778C107.378 228.235 107.229 228.953 107.211 229.932V233.043C107.211 234.086 107.352 234.862 107.633 235.372C107.92 235.876 108.377 236.128 109.004 236.128C109.625 236.128 110.073 235.885 110.349 235.398C110.624 234.912 110.768 234.168 110.779 233.166V230.125ZM123.655 232.709C123.655 234.479 123.289 235.832 122.557 236.77C121.824 237.707 120.752 238.176 119.34 238.176C117.945 238.176 116.879 237.716 116.141 236.796C115.402 235.876 115.024 234.558 115.007 232.841V230.485C115.007 228.698 115.376 227.342 116.114 226.416C116.858 225.49 117.928 225.027 119.322 225.027C120.717 225.027 121.783 225.487 122.521 226.407C123.26 227.321 123.638 228.637 123.655 230.354V232.709ZM121.115 230.125C121.115 229.064 120.969 228.294 120.676 227.813C120.389 227.327 119.938 227.084 119.322 227.084C118.725 227.084 118.282 227.315 117.995 227.778C117.714 228.235 117.564 228.953 117.547 229.932V233.043C117.547 234.086 117.688 234.862 117.969 235.372C118.256 235.876 118.713 236.128 119.34 236.128C119.961 236.128 120.409 235.885 120.685 235.398C120.96 234.912 121.104 234.168 121.115 233.166V230.125Z" fill="#DAFF6E"/>
<path id="Current Balance" d="M34.2656 256.293C34.1602 257.195 33.8262 257.893 33.2637 258.385C32.7051 258.873 31.9609 259.117 31.0312 259.117C30.0234 259.117 29.2148 258.756 28.6055 258.033C28 257.311 27.6973 256.344 27.6973 255.133V254.312C27.6973 253.52 27.8379 252.822 28.1191 252.221C28.4043 251.619 28.8066 251.158 29.3262 250.838C29.8457 250.514 30.4473 250.352 31.1309 250.352C32.0371 250.352 32.7637 250.605 33.3105 251.113C33.8574 251.617 34.1758 252.316 34.2656 253.211H33.1348C33.0371 252.531 32.8242 252.039 32.4961 251.734C32.1719 251.43 31.7168 251.277 31.1309 251.277C30.4121 251.277 29.8477 251.543 29.4375 252.074C29.0312 252.605 28.8281 253.361 28.8281 254.342V255.168C28.8281 256.094 29.0215 256.83 29.4082 257.377C29.7949 257.924 30.3359 258.197 31.0312 258.197C31.6562 258.197 32.1348 258.057 32.4668 257.775C32.8027 257.49 33.0254 256.996 33.1348 256.293H34.2656ZM39.5508 258.373C39.1289 258.869 38.5098 259.117 37.6934 259.117C37.0176 259.117 36.502 258.922 36.1465 258.531C35.7949 258.137 35.6172 257.555 35.6133 256.785V252.66H36.6973V256.756C36.6973 257.717 37.0879 258.197 37.8691 258.197C38.6973 258.197 39.248 257.889 39.5215 257.271V252.66H40.6055V259H39.5742L39.5508 258.373ZM45.3223 253.633C45.1582 253.605 44.9805 253.592 44.7891 253.592C44.0781 253.592 43.5957 253.895 43.3418 254.5V259H42.2578V252.66H43.3125L43.3301 253.393C43.6855 252.826 44.1895 252.543 44.8418 252.543C45.0527 252.543 45.2129 252.57 45.3223 252.625V253.633ZM49.3887 253.633C49.2246 253.605 49.0469 253.592 48.8555 253.592C48.1445 253.592 47.6621 253.895 47.4082 254.5V259H46.3242V252.66H47.3789L47.3965 253.393C47.752 252.826 48.2559 252.543 48.9082 252.543C49.1191 252.543 49.2793 252.57 49.3887 252.625V253.633ZM52.9043 259.117C52.0449 259.117 51.3457 258.836 50.8066 258.273C50.2676 257.707 49.998 256.951 49.998 256.006V255.807C49.998 255.178 50.1172 254.617 50.3555 254.125C50.5977 253.629 50.9336 253.242 51.3633 252.965C51.7969 252.684 52.2656 252.543 52.7695 252.543C53.5938 252.543 54.2344 252.814 54.6914 253.357C55.1484 253.9 55.377 254.678 55.377 255.689V256.141H51.082C51.0977 256.766 51.2793 257.271 51.627 257.658C51.9785 258.041 52.4238 258.232 52.9629 258.232C53.3457 258.232 53.6699 258.154 53.9355 257.998C54.2012 257.842 54.4336 257.635 54.6328 257.377L55.2949 257.893C54.7637 258.709 53.9668 259.117 52.9043 259.117ZM52.7695 253.434C52.332 253.434 51.9648 253.594 51.668 253.914C51.3711 254.23 51.1875 254.676 51.1172 255.25H54.293V255.168C54.2617 254.617 54.1133 254.191 53.8477 253.891C53.582 253.586 53.2227 253.434 52.7695 253.434ZM57.6621 252.66L57.6973 253.457C58.1816 252.848 58.8145 252.543 59.5957 252.543C60.9355 252.543 61.6113 253.299 61.623 254.811V259H60.5391V254.805C60.5352 254.348 60.4297 254.01 60.2227 253.791C60.0195 253.572 59.7012 253.463 59.2676 253.463C58.916 253.463 58.6074 253.557 58.3418 253.744C58.0762 253.932 57.8691 254.178 57.7207 254.482V259H56.6367V252.66H57.6621ZM64.7285 251.125V252.66H65.9121V253.498H64.7285V257.43C64.7285 257.684 64.7812 257.875 64.8867 258.004C64.9922 258.129 65.1719 258.191 65.4258 258.191C65.5508 258.191 65.7227 258.168 65.9414 258.121V259C65.6562 259.078 65.3789 259.117 65.1094 259.117C64.625 259.117 64.2598 258.971 64.0137 258.678C63.7676 258.385 63.6445 257.969 63.6445 257.43V253.498H62.4902V252.66H63.6445V251.125H64.7285ZM70.3301 259V250.469H73.1191C74.0449 250.469 74.7402 250.66 75.2051 251.043C75.6738 251.426 75.9082 251.992 75.9082 252.742C75.9082 253.141 75.7949 253.494 75.5684 253.803C75.3418 254.107 75.0332 254.344 74.6426 254.512C75.1035 254.641 75.4668 254.887 75.7324 255.25C76.002 255.609 76.1367 256.039 76.1367 256.539C76.1367 257.305 75.8887 257.906 75.3926 258.344C74.8965 258.781 74.1953 259 73.2891 259H70.3301ZM71.4551 255.01V258.08H73.3125C73.8359 258.08 74.248 257.945 74.5488 257.676C74.8535 257.402 75.0059 257.027 75.0059 256.551C75.0059 255.523 74.4473 255.01 73.3301 255.01H71.4551ZM71.4551 254.107H73.1543C73.6465 254.107 74.0391 253.984 74.332 253.738C74.6289 253.492 74.7773 253.158 74.7773 252.736C74.7773 252.268 74.6406 251.928 74.3672 251.717C74.0938 251.502 73.6777 251.395 73.1191 251.395H71.4551V254.107ZM81.5508 259C81.4883 258.875 81.4375 258.652 81.3984 258.332C80.8945 258.855 80.293 259.117 79.5938 259.117C78.9688 259.117 78.4551 258.941 78.0527 258.59C77.6543 258.234 77.4551 257.785 77.4551 257.242C77.4551 256.582 77.7051 256.07 78.2051 255.707C78.709 255.34 79.416 255.156 80.3262 255.156H81.3809V254.658C81.3809 254.279 81.2676 253.979 81.041 253.756C80.8145 253.529 80.4805 253.416 80.0391 253.416C79.6523 253.416 79.3281 253.514 79.0664 253.709C78.8047 253.904 78.6738 254.141 78.6738 254.418H77.584C77.584 254.102 77.6953 253.797 77.918 253.504C78.1445 253.207 78.4492 252.973 78.832 252.801C79.2188 252.629 79.6426 252.543 80.1035 252.543C80.834 252.543 81.4062 252.727 81.8203 253.094C82.2344 253.457 82.4492 253.959 82.4648 254.6V257.518C82.4648 258.1 82.5391 258.562 82.6875 258.906V259H81.5508ZM79.752 258.174C80.0918 258.174 80.4141 258.086 80.7188 257.91C81.0234 257.734 81.2441 257.506 81.3809 257.225V255.924H80.5312C79.2031 255.924 78.5391 256.312 78.5391 257.09C78.5391 257.43 78.6523 257.695 78.8789 257.887C79.1055 258.078 79.3965 258.174 79.752 258.174ZM85.3418 259H84.2578V250H85.3418V259ZM90.9961 259C90.9336 258.875 90.8828 258.652 90.8438 258.332C90.3398 258.855 89.7383 259.117 89.0391 259.117C88.4141 259.117 87.9004 258.941 87.498 258.59C87.0996 258.234 86.9004 257.785 86.9004 257.242C86.9004 256.582 87.1504 256.07 87.6504 255.707C88.1543 255.34 88.8613 255.156 89.7715 255.156H90.8262V254.658C90.8262 254.279 90.7129 253.979 90.4863 253.756C90.2598 253.529 89.9258 253.416 89.4844 253.416C89.0977 253.416 88.7734 253.514 88.5117 253.709C88.25 253.904 88.1191 254.141 88.1191 254.418H87.0293C87.0293 254.102 87.1406 253.797 87.3633 253.504C87.5898 253.207 87.8945 252.973 88.2773 252.801C88.6641 252.629 89.0879 252.543 89.5488 252.543C90.2793 252.543 90.8516 252.727 91.2656 253.094C91.6797 253.457 91.8945 253.959 91.9102 254.6V257.518C91.9102 258.1 91.9844 258.562 92.1328 258.906V259H90.9961ZM89.1973 258.174C89.5371 258.174 89.8594 258.086 90.1641 257.91C90.4688 257.734 90.6895 257.506 90.8262 257.225V255.924H89.9766C88.6484 255.924 87.9844 256.312 87.9844 257.09C87.9844 257.43 88.0977 257.695 88.3242 257.887C88.5508 258.078 88.8418 258.174 89.1973 258.174ZM94.6348 252.66L94.6699 253.457C95.1543 252.848 95.7871 252.543 96.5684 252.543C97.9082 252.543 98.584 253.299 98.5957 254.811V259H97.5117V254.805C97.5078 254.348 97.4023 254.01 97.1953 253.791C96.9922 253.572 96.6738 253.463 96.2402 253.463C95.8887 253.463 95.5801 253.557 95.3145 253.744C95.0488 253.932 94.8418 254.178 94.6934 254.482V259H93.6094V252.66H94.6348ZM102.773 258.232C103.16 258.232 103.498 258.115 103.787 257.881C104.076 257.646 104.236 257.354 104.268 257.002H105.293C105.273 257.365 105.148 257.711 104.918 258.039C104.688 258.367 104.379 258.629 103.992 258.824C103.609 259.02 103.203 259.117 102.773 259.117C101.91 259.117 101.223 258.83 100.711 258.256C100.203 257.678 99.9492 256.889 99.9492 255.889V255.707C99.9492 255.09 100.062 254.541 100.289 254.061C100.516 253.58 100.84 253.207 101.262 252.941C101.688 252.676 102.189 252.543 102.768 252.543C103.479 252.543 104.068 252.756 104.537 253.182C105.01 253.607 105.262 254.16 105.293 254.84H104.268C104.236 254.43 104.08 254.094 103.799 253.832C103.521 253.566 103.178 253.434 102.768 253.434C102.217 253.434 101.789 253.633 101.484 254.031C101.184 254.426 101.033 254.998 101.033 255.748V255.953C101.033 256.684 101.184 257.246 101.484 257.641C101.785 258.035 102.215 258.232 102.773 258.232ZM109.143 259.117C108.283 259.117 107.584 258.836 107.045 258.273C106.506 257.707 106.236 256.951 106.236 256.006V255.807C106.236 255.178 106.355 254.617 106.594 254.125C106.836 253.629 107.172 253.242 107.602 252.965C108.035 252.684 108.504 252.543 109.008 252.543C109.832 252.543 110.473 252.814 110.93 253.357C111.387 253.9 111.615 254.678 111.615 255.689V256.141H107.32C107.336 256.766 107.518 257.271 107.865 257.658C108.217 258.041 108.662 258.232 109.201 258.232C109.584 258.232 109.908 258.154 110.174 257.998C110.439 257.842 110.672 257.635 110.871 257.377L111.533 257.893C111.002 258.709 110.205 259.117 109.143 259.117ZM109.008 253.434C108.57 253.434 108.203 253.594 107.906 253.914C107.609 254.23 107.426 254.676 107.355 255.25H110.531V255.168C110.5 254.617 110.352 254.191 110.086 253.891C109.82 253.586 109.461 253.434 109.008 253.434Z" fill="white"/>
<path id="Send Money" d="M21.2139 346.437C21.2139 345.999 21.0589 345.662 20.749 345.425C20.4437 345.188 19.89 344.949 19.0879 344.707C18.2858 344.465 17.6478 344.197 17.1738 343.9C16.2669 343.331 15.8135 342.588 15.8135 341.672C15.8135 340.87 16.1393 340.209 16.791 339.689C17.4473 339.17 18.2972 338.91 19.3408 338.91C20.0335 338.91 20.651 339.038 21.1934 339.293C21.7357 339.548 22.1618 339.913 22.4717 340.387C22.7816 340.856 22.9365 341.378 22.9365 341.952H21.2139C21.2139 341.433 21.0498 341.027 20.7217 340.735C20.3981 340.439 19.9333 340.291 19.3271 340.291C18.762 340.291 18.3223 340.412 18.0078 340.653C17.6979 340.895 17.543 341.232 17.543 341.665C17.543 342.03 17.7116 342.335 18.0488 342.581C18.3861 342.823 18.9421 343.06 19.7168 343.292C20.4915 343.52 21.1136 343.782 21.583 344.078C22.0524 344.37 22.3965 344.707 22.6152 345.09C22.834 345.468 22.9434 345.912 22.9434 346.423C22.9434 347.252 22.6243 347.913 21.9863 348.405C21.3529 348.893 20.4915 349.137 19.4023 349.137C18.6823 349.137 18.0192 349.005 17.4131 348.74C16.8115 348.471 16.3421 348.102 16.0049 347.633C15.6722 347.163 15.5059 346.617 15.5059 345.992H17.2354C17.2354 346.557 17.4222 346.995 17.7959 347.305C18.1696 347.615 18.7051 347.77 19.4023 347.77C20.0039 347.77 20.4551 347.649 20.7559 347.407C21.0612 347.161 21.2139 346.838 21.2139 346.437ZM27.5576 349.137C26.5049 349.137 25.6504 348.806 24.9941 348.146C24.3424 347.48 24.0166 346.596 24.0166 345.493V345.288C24.0166 344.55 24.1579 343.891 24.4404 343.312C24.7275 342.729 25.1286 342.276 25.6436 341.952C26.1585 341.629 26.7327 341.467 27.3662 341.467C28.3734 341.467 29.1504 341.788 29.6973 342.431C30.2487 343.073 30.5244 343.982 30.5244 345.158V345.828H25.6914C25.7415 346.439 25.9443 346.922 26.2998 347.277C26.6598 347.633 27.111 347.811 27.6533 347.811C28.4144 347.811 29.0342 347.503 29.5127 346.888L30.4082 347.742C30.112 348.184 29.7155 348.528 29.2188 348.774C28.7266 349.016 28.1729 349.137 27.5576 349.137ZM27.3594 342.8C26.9036 342.8 26.5345 342.959 26.252 343.278C25.974 343.597 25.7962 344.042 25.7188 344.611H28.8838V344.488C28.8473 343.932 28.6992 343.513 28.4395 343.23C28.1797 342.943 27.8197 342.8 27.3594 342.8ZM33.3613 341.604L33.4092 342.458C33.9561 341.797 34.6738 341.467 35.5625 341.467C37.1029 341.467 37.8867 342.349 37.9141 344.112V349H36.2529V344.208C36.2529 343.739 36.1504 343.392 35.9453 343.169C35.7448 342.941 35.4144 342.827 34.9541 342.827C34.2842 342.827 33.7852 343.13 33.457 343.736V349H31.7959V341.604H33.3613ZM39.3018 345.247C39.3018 344.108 39.5661 343.194 40.0947 342.506C40.6234 341.813 41.332 341.467 42.2207 341.467C43.0046 341.467 43.638 341.74 44.1211 342.287V338.5H45.7822V349H44.2783L44.1963 348.234C43.6995 348.836 43.0365 349.137 42.207 349.137C41.3411 349.137 40.6393 348.788 40.1016 348.091C39.5684 347.394 39.3018 346.446 39.3018 345.247ZM40.9629 345.391C40.9629 346.143 41.1064 346.73 41.3936 347.154C41.6852 347.574 42.0977 347.783 42.6309 347.783C43.3099 347.783 43.8066 347.48 44.1211 346.874V343.716C43.8158 343.123 43.3236 342.827 42.6445 342.827C42.1068 342.827 41.6921 343.041 41.4004 343.47C41.1087 343.894 40.9629 344.534 40.9629 345.391ZM53.4043 339.047L56.2754 346.676L59.1396 339.047H61.375V349H59.6523V345.719L59.8232 341.33L56.8838 349H55.6465L52.7139 341.337L52.8848 345.719V349H51.1621V339.047H53.4043ZM62.9541 345.233C62.9541 344.509 63.0977 343.857 63.3848 343.278C63.6719 342.695 64.0752 342.248 64.5947 341.938C65.1143 341.624 65.7113 341.467 66.3857 341.467C67.3838 341.467 68.1927 341.788 68.8125 342.431C69.4368 343.073 69.7741 343.925 69.8242 344.987L69.8311 345.377C69.8311 346.106 69.6898 346.758 69.4072 347.332C69.1292 347.906 68.7282 348.351 68.2041 348.665C67.6846 348.979 67.083 349.137 66.3994 349.137C65.3558 349.137 64.5195 348.79 63.8906 348.098C63.2663 347.4 62.9541 346.473 62.9541 345.315V345.233ZM64.6152 345.377C64.6152 346.138 64.7725 346.735 65.0869 347.168C65.4014 347.596 65.8389 347.811 66.3994 347.811C66.96 347.811 67.3952 347.592 67.7051 347.154C68.0195 346.717 68.1768 346.076 68.1768 345.233C68.1768 344.486 68.015 343.894 67.6914 343.456C67.3724 343.019 66.9372 342.8 66.3857 342.8C65.8434 342.8 65.4128 343.016 65.0938 343.449C64.7747 343.878 64.6152 344.52 64.6152 345.377ZM72.7773 341.604L72.8252 342.458C73.3721 341.797 74.0898 341.467 74.9785 341.467C76.5189 341.467 77.3027 342.349 77.3301 344.112V349H75.6689V344.208C75.6689 343.739 75.5664 343.392 75.3613 343.169C75.1608 342.941 74.8304 342.827 74.3701 342.827C73.7002 342.827 73.2012 343.13 72.873 343.736V349H71.2119V341.604H72.7773ZM82.2861 349.137C81.2334 349.137 80.3789 348.806 79.7227 348.146C79.071 347.48 78.7451 346.596 78.7451 345.493V345.288C78.7451 344.55 78.8864 343.891 79.1689 343.312C79.4561 342.729 79.8571 342.276 80.3721 341.952C80.887 341.629 81.4613 341.467 82.0947 341.467C83.1019 341.467 83.8789 341.788 84.4258 342.431C84.9772 343.073 85.2529 343.982 85.2529 345.158V345.828H80.4199C80.4701 346.439 80.6729 346.922 81.0283 347.277C81.3883 347.633 81.8395 347.811 82.3818 347.811C83.1429 347.811 83.7627 347.503 84.2412 346.888L85.1367 347.742C84.8405 348.184 84.444 348.528 83.9473 348.774C83.4551 349.016 82.9014 349.137 82.2861 349.137ZM82.0879 342.8C81.6322 342.8 81.263 342.959 80.9805 343.278C80.7025 343.597 80.5247 344.042 80.4473 344.611H83.6123V344.488C83.5758 343.932 83.4277 343.513 83.168 343.23C82.9082 342.943 82.5482 342.8 82.0879 342.8ZM89.04 346.621L90.5439 341.604H92.3145L89.375 350.121C88.9238 351.365 88.1582 351.987 87.0781 351.987C86.8366 351.987 86.57 351.946 86.2783 351.864V350.579L86.5928 350.6C87.012 350.6 87.3265 350.522 87.5361 350.367C87.7503 350.217 87.9189 349.962 88.042 349.602L88.2812 348.966L85.6836 341.604H87.4746L89.04 346.621Z" fill="white"/>
<circle id="Ellipse 2" cx="32.5" cy="388.5" r="17.5" fill="white" fill-opacity="0.2"/>
<path id="+" d="M34.0391 387.613H38.4922V390.215H34.0391V395.289H31.2734V390.215H26.7969V387.613H31.2734V382.867H34.0391V387.613Z" fill="white"/>
<path id="Rectangle 9_2" d="M55 371C55 365.477 59.4772 361 65 361H130C135.523 361 140 365.477 140 371V431C140 436.523 135.523 441 130 441H65C59.4772 441 55 436.523 55 431V371Z" fill="white" fill-opacity="0.2"/>
<path id="Saving Account" d="M81.8887 394.437C81.8887 393.999 81.7337 393.662 81.4238 393.425C81.1185 393.188 80.5648 392.949 79.7627 392.707C78.9606 392.465 78.3226 392.197 77.8486 391.9C76.9417 391.331 76.4883 390.588 76.4883 389.672C76.4883 388.87 76.8141 388.209 77.4658 387.689C78.1221 387.17 78.972 386.91 80.0156 386.91C80.7083 386.91 81.3258 387.038 81.8682 387.293C82.4105 387.548 82.8366 387.913 83.1465 388.387C83.4564 388.856 83.6113 389.378 83.6113 389.952H81.8887C81.8887 389.433 81.7246 389.027 81.3965 388.735C81.0729 388.439 80.6081 388.291 80.002 388.291C79.4368 388.291 78.9971 388.412 78.6826 388.653C78.3727 388.895 78.2178 389.232 78.2178 389.665C78.2178 390.03 78.3864 390.335 78.7236 390.581C79.0609 390.823 79.6169 391.06 80.3916 391.292C81.1663 391.52 81.7884 391.782 82.2578 392.078C82.7272 392.37 83.0713 392.707 83.29 393.09C83.5088 393.468 83.6182 393.912 83.6182 394.423C83.6182 395.252 83.2992 395.913 82.6611 396.405C82.0277 396.893 81.1663 397.137 80.0771 397.137C79.3571 397.137 78.694 397.005 78.0879 396.74C77.4863 396.471 77.0169 396.102 76.6797 395.633C76.347 395.163 76.1807 394.617 76.1807 393.992H77.9102C77.9102 394.557 78.097 394.995 78.4707 395.305C78.8444 395.615 79.3799 395.77 80.0771 395.77C80.6787 395.77 81.1299 395.649 81.4307 395.407C81.736 395.161 81.8887 394.838 81.8887 394.437ZM89.3945 397C89.3216 396.859 89.2578 396.629 89.2031 396.31C88.6745 396.861 88.0273 397.137 87.2617 397.137C86.5189 397.137 85.9128 396.925 85.4434 396.501C84.974 396.077 84.7393 395.553 84.7393 394.929C84.7393 394.14 85.0309 393.536 85.6143 393.117C86.2021 392.693 87.0407 392.481 88.1299 392.481H89.1484V391.996C89.1484 391.613 89.0413 391.308 88.8271 391.08C88.613 390.848 88.2871 390.731 87.8496 390.731C87.4714 390.731 87.1615 390.827 86.9199 391.019C86.6784 391.205 86.5576 391.445 86.5576 391.736H84.8965C84.8965 391.331 85.0309 390.952 85.2998 390.602C85.5687 390.246 85.9333 389.968 86.3936 389.768C86.8584 389.567 87.3757 389.467 87.9453 389.467C88.8112 389.467 89.5016 389.686 90.0166 390.123C90.5316 390.556 90.7959 391.167 90.8096 391.955V395.291C90.8096 395.956 90.903 396.487 91.0898 396.884V397H89.3945ZM87.5693 395.804C87.8975 395.804 88.2051 395.724 88.4922 395.564C88.7839 395.405 89.0026 395.191 89.1484 394.922V393.527H88.2529C87.6377 393.527 87.1751 393.634 86.8652 393.849C86.5553 394.063 86.4004 394.366 86.4004 394.758C86.4004 395.077 86.5052 395.332 86.7148 395.523C86.929 395.71 87.2139 395.804 87.5693 395.804ZM95.0479 394.895L96.6133 389.604H98.3291L95.7656 397H94.3232L91.7393 389.604H93.4619L95.0479 394.895ZM101.139 397H99.4775V389.604H101.139V397ZM99.375 387.683C99.375 387.427 99.4548 387.215 99.6143 387.047C99.7783 386.878 100.011 386.794 100.312 386.794C100.612 386.794 100.845 386.878 101.009 387.047C101.173 387.215 101.255 387.427 101.255 387.683C101.255 387.933 101.173 388.143 101.009 388.312C100.845 388.476 100.612 388.558 100.312 388.558C100.011 388.558 99.7783 388.476 99.6143 388.312C99.4548 388.143 99.375 387.933 99.375 387.683ZM104.495 389.604L104.543 390.458C105.09 389.797 105.808 389.467 106.696 389.467C108.237 389.467 109.021 390.349 109.048 392.112V397H107.387V392.208C107.387 391.739 107.284 391.392 107.079 391.169C106.879 390.941 106.548 390.827 106.088 390.827C105.418 390.827 104.919 391.13 104.591 391.736V397H102.93V389.604H104.495ZM110.456 393.247C110.456 392.099 110.725 391.183 111.263 390.499C111.805 389.811 112.523 389.467 113.416 389.467C114.259 389.467 114.922 389.761 115.405 390.349L115.48 389.604H116.978V396.774C116.978 397.745 116.674 398.511 116.068 399.071C115.467 399.632 114.653 399.912 113.628 399.912C113.086 399.912 112.555 399.798 112.035 399.57C111.52 399.347 111.128 399.053 110.859 398.688L111.646 397.69C112.156 398.297 112.785 398.6 113.532 398.6C114.084 398.6 114.519 398.449 114.838 398.148C115.157 397.852 115.316 397.415 115.316 396.836V396.337C114.838 396.87 114.2 397.137 113.402 397.137C112.536 397.137 111.828 396.793 111.276 396.104C110.729 395.416 110.456 394.464 110.456 393.247ZM112.11 393.391C112.11 394.133 112.261 394.719 112.562 395.147C112.867 395.571 113.288 395.783 113.826 395.783C114.496 395.783 114.993 395.496 115.316 394.922V391.668C115.002 391.107 114.51 390.827 113.84 390.827C113.293 390.827 112.867 391.044 112.562 391.477C112.261 391.91 112.11 392.548 112.11 393.391ZM78.9902 410.683H75.1348L74.3281 413H72.5303L76.29 403.047H77.8418L81.6084 413H79.8037L78.9902 410.683ZM75.6201 409.288H78.5049L77.0625 405.159L75.6201 409.288ZM85.6211 411.811C86.0358 411.811 86.3799 411.69 86.6533 411.448C86.9268 411.207 87.0726 410.908 87.0908 410.553H88.6562C88.638 411.013 88.4945 411.444 88.2256 411.845C87.9567 412.241 87.5921 412.556 87.1318 412.788C86.6715 413.021 86.1748 413.137 85.6416 413.137C84.6071 413.137 83.7868 412.802 83.1807 412.132C82.5745 411.462 82.2715 410.537 82.2715 409.356V409.186C82.2715 408.06 82.5723 407.16 83.1738 406.485C83.7754 405.806 84.5957 405.467 85.6348 405.467C86.5143 405.467 87.2298 405.724 87.7812 406.239C88.3372 406.75 88.6289 407.422 88.6562 408.256H87.0908C87.0726 407.832 86.9268 407.483 86.6533 407.21C86.3844 406.937 86.0404 406.8 85.6211 406.8C85.0833 406.8 84.6686 406.996 84.377 407.388C84.0853 407.775 83.9372 408.365 83.9326 409.158V409.425C83.9326 410.227 84.0762 410.826 84.3633 411.223C84.6549 411.615 85.0742 411.811 85.6211 411.811ZM92.9492 411.811C93.3639 411.811 93.708 411.69 93.9814 411.448C94.2549 411.207 94.4007 410.908 94.4189 410.553H95.9844C95.9661 411.013 95.8226 411.444 95.5537 411.845C95.2848 412.241 94.9202 412.556 94.46 412.788C93.9997 413.021 93.5029 413.137 92.9697 413.137C91.9352 413.137 91.1149 412.802 90.5088 412.132C89.9027 411.462 89.5996 410.537 89.5996 409.356V409.186C89.5996 408.06 89.9004 407.16 90.502 406.485C91.1035 405.806 91.9238 405.467 92.9629 405.467C93.8424 405.467 94.5579 405.724 95.1094 406.239C95.6654 406.75 95.957 407.422 95.9844 408.256H94.4189C94.4007 407.832 94.2549 407.483 93.9814 407.21C93.7126 406.937 93.3685 406.8 92.9492 406.8C92.4115 406.8 91.9967 406.996 91.7051 407.388C91.4134 407.775 91.2653 408.365 91.2607 409.158V409.425C91.2607 410.227 91.4043 410.826 91.6914 411.223C91.9831 411.615 92.4023 411.811 92.9492 411.811ZM96.9277 409.233C96.9277 408.509 97.0713 407.857 97.3584 407.278C97.6455 406.695 98.0488 406.248 98.5684 405.938C99.0879 405.624 99.6849 405.467 100.359 405.467C101.357 405.467 102.166 405.788 102.786 406.431C103.41 407.073 103.748 407.925 103.798 408.987L103.805 409.377C103.805 410.106 103.663 410.758 103.381 411.332C103.103 411.906 102.702 412.351 102.178 412.665C101.658 412.979 101.057 413.137 100.373 413.137C99.3294 413.137 98.4932 412.79 97.8643 412.098C97.2399 411.4 96.9277 410.473 96.9277 409.315V409.233ZM98.5889 409.377C98.5889 410.138 98.7461 410.735 99.0605 411.168C99.375 411.596 99.8125 411.811 100.373 411.811C100.934 411.811 101.369 411.592 101.679 411.154C101.993 410.717 102.15 410.076 102.15 409.233C102.15 408.486 101.989 407.894 101.665 407.456C101.346 407.019 100.911 406.8 100.359 406.8C99.8171 406.8 99.3864 407.016 99.0674 407.449C98.7484 407.878 98.5889 408.52 98.5889 409.377ZM109.69 412.275C109.203 412.85 108.51 413.137 107.612 413.137C106.81 413.137 106.202 412.902 105.787 412.433C105.377 411.963 105.172 411.284 105.172 410.396V405.604H106.833V410.375C106.833 411.314 107.223 411.783 108.002 411.783C108.809 411.783 109.353 411.494 109.636 410.915V405.604H111.297V413H109.731L109.69 412.275ZM114.53 405.604L114.578 406.458C115.125 405.797 115.843 405.467 116.731 405.467C118.272 405.467 119.056 406.349 119.083 408.112V413H117.422V408.208C117.422 407.739 117.319 407.392 117.114 407.169C116.914 406.941 116.583 406.827 116.123 406.827C115.453 406.827 114.954 407.13 114.626 407.736V413H112.965V405.604H114.53ZM122.863 403.806V405.604H124.169V406.834H122.863V410.963C122.863 411.245 122.918 411.451 123.027 411.578C123.141 411.701 123.342 411.763 123.629 411.763C123.82 411.763 124.014 411.74 124.21 411.694V412.979C123.832 413.084 123.467 413.137 123.116 413.137C121.84 413.137 121.202 412.433 121.202 411.024V406.834H119.985V405.604H121.202V403.806H122.863Z" fill="white"/>
<path id="Settings" d="M21.2139 464.437C21.2139 463.999 21.0589 463.662 20.749 463.425C20.4437 463.188 19.89 462.949 19.0879 462.707C18.2858 462.465 17.6478 462.197 17.1738 461.9C16.2669 461.331 15.8135 460.588 15.8135 459.672C15.8135 458.87 16.1393 458.209 16.791 457.689C17.4473 457.17 18.2972 456.91 19.3408 456.91C20.0335 456.91 20.651 457.038 21.1934 457.293C21.7357 457.548 22.1618 457.913 22.4717 458.387C22.7816 458.856 22.9365 459.378 22.9365 459.952H21.2139C21.2139 459.433 21.0498 459.027 20.7217 458.735C20.3981 458.439 19.9333 458.291 19.3271 458.291C18.762 458.291 18.3223 458.412 18.0078 458.653C17.6979 458.895 17.543 459.232 17.543 459.665C17.543 460.03 17.7116 460.335 18.0488 460.581C18.3861 460.823 18.9421 461.06 19.7168 461.292C20.4915 461.52 21.1136 461.782 21.583 462.078C22.0524 462.37 22.3965 462.707 22.6152 463.09C22.834 463.468 22.9434 463.912 22.9434 464.423C22.9434 465.252 22.6243 465.913 21.9863 466.405C21.3529 466.893 20.4915 467.137 19.4023 467.137C18.6823 467.137 18.0192 467.005 17.4131 466.74C16.8115 466.471 16.3421 466.102 16.0049 465.633C15.6722 465.163 15.5059 464.617 15.5059 463.992H17.2354C17.2354 464.557 17.4222 464.995 17.7959 465.305C18.1696 465.615 18.7051 465.77 19.4023 465.77C20.0039 465.77 20.4551 465.649 20.7559 465.407C21.0612 465.161 21.2139 464.838 21.2139 464.437ZM27.5576 467.137C26.5049 467.137 25.6504 466.806 24.9941 466.146C24.3424 465.48 24.0166 464.596 24.0166 463.493V463.288C24.0166 462.55 24.1579 461.891 24.4404 461.312C24.7275 460.729 25.1286 460.276 25.6436 459.952C26.1585 459.629 26.7327 459.467 27.3662 459.467C28.3734 459.467 29.1504 459.788 29.6973 460.431C30.2487 461.073 30.5244 461.982 30.5244 463.158V463.828H25.6914C25.7415 464.439 25.9443 464.922 26.2998 465.277C26.6598 465.633 27.111 465.811 27.6533 465.811C28.4144 465.811 29.0342 465.503 29.5127 464.888L30.4082 465.742C30.112 466.184 29.7155 466.528 29.2188 466.774C28.7266 467.016 28.1729 467.137 27.5576 467.137ZM27.3594 460.8C26.9036 460.8 26.5345 460.959 26.252 461.278C25.974 461.597 25.7962 462.042 25.7188 462.611H28.8838V462.488C28.8473 461.932 28.6992 461.513 28.4395 461.23C28.1797 460.943 27.8197 460.8 27.3594 460.8ZM33.9014 457.806V459.604H35.207V460.834H33.9014V464.963C33.9014 465.245 33.9561 465.451 34.0654 465.578C34.1794 465.701 34.3799 465.763 34.667 465.763C34.8584 465.763 35.0521 465.74 35.248 465.694V466.979C34.8698 467.084 34.5052 467.137 34.1543 467.137C32.8783 467.137 32.2402 466.433 32.2402 465.024V460.834H31.0234V459.604H32.2402V457.806H33.9014ZM38.5635 457.806V459.604H39.8691V460.834H38.5635V464.963C38.5635 465.245 38.6182 465.451 38.7275 465.578C38.8415 465.701 39.042 465.763 39.3291 465.763C39.5205 465.763 39.7142 465.74 39.9102 465.694V466.979C39.5319 467.084 39.1673 467.137 38.8164 467.137C37.5404 467.137 36.9023 466.433 36.9023 465.024V460.834H35.6855V459.604H36.9023V457.806H38.5635ZM42.9111 467H41.25V459.604H42.9111V467ZM41.1475 457.683C41.1475 457.427 41.2272 457.215 41.3867 457.047C41.5508 456.878 41.7832 456.794 42.084 456.794C42.3848 456.794 42.6172 456.878 42.7812 457.047C42.9453 457.215 43.0273 457.427 43.0273 457.683C43.0273 457.933 42.9453 458.143 42.7812 458.312C42.6172 458.476 42.3848 458.558 42.084 458.558C41.7832 458.558 41.5508 458.476 41.3867 458.312C41.2272 458.143 41.1475 457.933 41.1475 457.683ZM46.2676 459.604L46.3154 460.458C46.8623 459.797 47.5801 459.467 48.4688 459.467C50.0091 459.467 50.793 460.349 50.8203 462.112V467H49.1592V462.208C49.1592 461.739 49.0566 461.392 48.8516 461.169C48.651 460.941 48.3206 460.827 47.8604 460.827C47.1904 460.827 46.6914 461.13 46.3633 461.736V467H44.7021V459.604H46.2676ZM52.2285 463.247C52.2285 462.099 52.4974 461.183 53.0352 460.499C53.5775 459.811 54.2952 459.467 55.1885 459.467C56.0316 459.467 56.6947 459.761 57.1777 460.349L57.2529 459.604H58.75V466.774C58.75 467.745 58.4469 468.511 57.8408 469.071C57.2393 469.632 56.4258 469.912 55.4004 469.912C54.8581 469.912 54.3271 469.798 53.8076 469.57C53.2926 469.347 52.9007 469.053 52.6318 468.688L53.418 467.69C53.9284 468.297 54.5573 468.6 55.3047 468.6C55.8561 468.6 56.2913 468.449 56.6104 468.148C56.9294 467.852 57.0889 467.415 57.0889 466.836V466.337C56.6104 466.87 55.9723 467.137 55.1748 467.137C54.3089 467.137 53.6003 466.793 53.0488 466.104C52.502 465.416 52.2285 464.464 52.2285 463.247ZM53.8828 463.391C53.8828 464.133 54.0332 464.719 54.334 465.147C54.6393 465.571 55.0609 465.783 55.5986 465.783C56.2686 465.783 56.7653 465.496 57.0889 464.922V461.668C56.7744 461.107 56.2822 460.827 55.6123 460.827C55.0654 460.827 54.6393 461.044 54.334 461.477C54.0332 461.91 53.8828 462.548 53.8828 463.391ZM64.6084 464.99C64.6084 464.694 64.4854 464.468 64.2393 464.313C63.9977 464.159 63.5944 464.022 63.0293 463.903C62.4642 463.785 61.9925 463.634 61.6143 463.452C60.7848 463.051 60.3701 462.47 60.3701 461.709C60.3701 461.071 60.639 460.538 61.1768 460.109C61.7145 459.681 62.3981 459.467 63.2275 459.467C64.1117 459.467 64.8249 459.686 65.3672 460.123C65.9141 460.561 66.1875 461.128 66.1875 461.825H64.5264C64.5264 461.506 64.4079 461.242 64.1709 461.032C63.9339 460.818 63.6195 460.711 63.2275 460.711C62.863 460.711 62.5645 460.795 62.332 460.964C62.1042 461.132 61.9902 461.358 61.9902 461.641C61.9902 461.896 62.0973 462.094 62.3115 462.235C62.5257 462.377 62.9587 462.52 63.6104 462.666C64.262 462.807 64.7725 462.978 65.1416 463.179C65.5153 463.375 65.791 463.612 65.9688 463.89C66.151 464.168 66.2422 464.505 66.2422 464.901C66.2422 465.567 65.9665 466.107 65.415 466.521C64.8636 466.932 64.1413 467.137 63.248 467.137C62.6419 467.137 62.1019 467.027 61.6279 466.809C61.154 466.59 60.7848 466.289 60.5205 465.906C60.2562 465.523 60.124 465.111 60.124 464.669H61.7373C61.7601 465.061 61.9082 465.364 62.1816 465.578C62.4551 465.788 62.8174 465.893 63.2686 465.893C63.7061 465.893 64.0387 465.811 64.2666 465.646C64.4945 465.478 64.6084 465.259 64.6084 464.99Z" fill="white"/>
<path id="Rectangle 7" d="M15 502C15 496.477 19.4772 492 25 492H65C70.5228 492 75 496.477 75 502V538C75 543.523 70.5228 548 65 548H25C19.4772 548 15 543.523 15 538V502Z" fill="white" fill-opacity="0.2"/>
<path id="Transfer" d="M30.0312 516.664H27.3711V524H25.9004V516.664H23.2637V515.469H30.0312V516.664ZM33.9512 518.961C33.7637 518.93 33.5703 518.914 33.3711 518.914C32.7188 518.914 32.2793 519.164 32.0527 519.664V524H30.6289V517.66H31.9883L32.0234 518.369C32.3672 517.818 32.8438 517.543 33.4531 517.543C33.6562 517.543 33.8242 517.57 33.957 517.625L33.9512 518.961ZM38.4629 524C38.4004 523.879 38.3457 523.682 38.2988 523.408C37.8457 523.881 37.291 524.117 36.6348 524.117C35.998 524.117 35.4785 523.936 35.0762 523.572C34.6738 523.209 34.4727 522.76 34.4727 522.225C34.4727 521.549 34.7227 521.031 35.2227 520.672C35.7266 520.309 36.4453 520.127 37.3789 520.127H38.252V519.711C38.252 519.383 38.1602 519.121 37.9766 518.926C37.793 518.727 37.5137 518.627 37.1387 518.627C36.8145 518.627 36.5488 518.709 36.3418 518.873C36.1348 519.033 36.0312 519.238 36.0312 519.488H34.6074C34.6074 519.141 34.7227 518.816 34.9531 518.516C35.1836 518.211 35.4961 517.973 35.8906 517.801C36.2891 517.629 36.7324 517.543 37.2207 517.543C37.9629 517.543 38.5547 517.73 38.9961 518.105C39.4375 518.477 39.6641 519 39.6758 519.676V522.535C39.6758 523.105 39.7559 523.561 39.916 523.9V524H38.4629ZM36.8984 522.975C37.1797 522.975 37.4434 522.906 37.6895 522.77C37.9395 522.633 38.127 522.449 38.252 522.219V521.023H37.4844C36.957 521.023 36.5605 521.115 36.2949 521.299C36.0293 521.482 35.8965 521.742 35.8965 522.078C35.8965 522.352 35.9863 522.57 36.166 522.734C36.3496 522.895 36.5938 522.975 36.8984 522.975ZM42.4883 517.66L42.5293 518.393C42.998 517.826 43.6133 517.543 44.375 517.543C45.6953 517.543 46.3672 518.299 46.3906 519.811V524H44.9668V519.893C44.9668 519.49 44.8789 519.193 44.7031 519.002C44.5312 518.807 44.248 518.709 43.8535 518.709C43.2793 518.709 42.8516 518.969 42.5703 519.488V524H41.1465V517.66H42.4883ZM51.4004 522.277C51.4004 522.023 51.2949 521.83 51.084 521.697C50.877 521.564 50.5312 521.447 50.0469 521.346C49.5625 521.244 49.1582 521.115 48.834 520.959C48.123 520.615 47.7676 520.117 47.7676 519.465C47.7676 518.918 47.998 518.461 48.459 518.094C48.9199 517.727 49.5059 517.543 50.2168 517.543C50.9746 517.543 51.5859 517.73 52.0508 518.105C52.5195 518.48 52.7539 518.967 52.7539 519.564H51.3301C51.3301 519.291 51.2285 519.064 51.0254 518.885C50.8223 518.701 50.5527 518.609 50.2168 518.609C49.9043 518.609 49.6484 518.682 49.4492 518.826C49.2539 518.971 49.1562 519.164 49.1562 519.406C49.1562 519.625 49.248 519.795 49.4316 519.916C49.6152 520.037 49.9863 520.16 50.5449 520.285C51.1035 520.406 51.541 520.553 51.8574 520.725C52.1777 520.893 52.4141 521.096 52.5664 521.334C52.7227 521.572 52.8008 521.861 52.8008 522.201C52.8008 522.771 52.5645 523.234 52.0918 523.59C51.6191 523.941 51 524.117 50.2344 524.117C49.7148 524.117 49.252 524.023 48.8457 523.836C48.4395 523.648 48.123 523.391 47.8965 523.062C47.6699 522.734 47.5566 522.381 47.5566 522.002H48.9395C48.959 522.338 49.0859 522.598 49.3203 522.781C49.5547 522.961 49.8652 523.051 50.252 523.051C50.627 523.051 50.9121 522.98 51.1074 522.84C51.3027 522.695 51.4004 522.508 51.4004 522.277ZM54.5469 524V518.715H53.5801V517.66H54.5469V517.08C54.5469 516.377 54.7422 515.834 55.1328 515.451C55.5234 515.068 56.0703 514.877 56.7734 514.877C57.0234 514.877 57.2891 514.912 57.5703 514.982L57.5352 516.096C57.3789 516.064 57.1973 516.049 56.9902 516.049C56.3105 516.049 55.9707 516.398 55.9707 517.098V517.66H57.2598V518.715H55.9707V524H54.5469ZM60.9512 524.117C60.0488 524.117 59.3164 523.834 58.7539 523.268C58.1953 522.697 57.916 521.939 57.916 520.994V520.818C57.916 520.186 58.0371 519.621 58.2793 519.125C58.5254 518.625 58.8691 518.236 59.3105 517.959C59.752 517.682 60.2441 517.543 60.7871 517.543C61.6504 517.543 62.3164 517.818 62.7852 518.369C63.2578 518.92 63.4941 519.699 63.4941 520.707V521.281H59.3516C59.3945 521.805 59.5684 522.219 59.873 522.523C60.1816 522.828 60.5684 522.98 61.0332 522.98C61.6855 522.98 62.2168 522.717 62.627 522.189L63.3945 522.922C63.1406 523.301 62.8008 523.596 62.375 523.807C61.9531 524.014 61.4785 524.117 60.9512 524.117ZM60.7812 518.686C60.3906 518.686 60.0742 518.822 59.832 519.096C59.5938 519.369 59.4414 519.75 59.375 520.238H62.0879V520.133C62.0566 519.656 61.9297 519.297 61.707 519.055C61.4844 518.809 61.1758 518.686 60.7812 518.686ZM67.9238 518.961C67.7363 518.93 67.543 518.914 67.3438 518.914C66.6914 518.914 66.252 519.164 66.0254 519.664V524H64.6016V517.66H65.9609L65.9961 518.369C66.3398 517.818 66.8164 517.543 67.4258 517.543C67.6289 517.543 67.7969 517.57 67.9297 517.625L67.9238 518.961Z" fill="white"/>
<path id="Rectangle 7_2" d="M83 502C83 496.477 87.4772 492 93 492H133C138.523 492 143 496.477 143 502V538C143 543.523 138.523 548 133 548H93C87.4772 548 83 543.523 83 538V502Z" fill="white" fill-opacity="0.2"/>
<path id="Pay Bills" d="M92.3496 519.83V523H90.8672V514.469H94.1309C95.084 514.469 95.8398 514.717 96.3984 515.213C96.9609 515.709 97.2422 516.365 97.2422 517.182C97.2422 518.018 96.9668 518.668 96.416 519.133C95.8691 519.598 95.1016 519.83 94.1133 519.83H92.3496ZM92.3496 518.641H94.1309C94.6582 518.641 95.0605 518.518 95.3379 518.271C95.6152 518.021 95.7539 517.662 95.7539 517.193C95.7539 516.732 95.6133 516.365 95.332 516.092C95.0508 515.814 94.6641 515.672 94.1719 515.664H92.3496V518.641ZM102.123 523C102.061 522.879 102.006 522.682 101.959 522.408C101.506 522.881 100.951 523.117 100.295 523.117C99.6582 523.117 99.1387 522.936 98.7363 522.572C98.334 522.209 98.1328 521.76 98.1328 521.225C98.1328 520.549 98.3828 520.031 98.8828 519.672C99.3867 519.309 100.105 519.127 101.039 519.127H101.912V518.711C101.912 518.383 101.82 518.121 101.637 517.926C101.453 517.727 101.174 517.627 100.799 517.627C100.475 517.627 100.209 517.709 100.002 517.873C99.7949 518.033 99.6914 518.238 99.6914 518.488H98.2676C98.2676 518.141 98.3828 517.816 98.6133 517.516C98.8438 517.211 99.1562 516.973 99.5508 516.801C99.9492 516.629 100.393 516.543 100.881 516.543C101.623 516.543 102.215 516.73 102.656 517.105C103.098 517.477 103.324 518 103.336 518.676V521.535C103.336 522.105 103.416 522.561 103.576 522.9V523H102.123ZM100.559 521.975C100.84 521.975 101.104 521.906 101.35 521.77C101.6 521.633 101.787 521.449 101.912 521.219V520.023H101.145C100.617 520.023 100.221 520.115 99.9551 520.299C99.6895 520.482 99.5566 520.742 99.5566 521.078C99.5566 521.352 99.6465 521.57 99.8262 521.734C100.01 521.895 100.254 521.975 100.559 521.975ZM106.951 520.961L108.24 516.66H109.758L107.238 523.961C106.852 525.027 106.195 525.561 105.27 525.561C105.062 525.561 104.834 525.525 104.584 525.455V524.354L104.854 524.371C105.213 524.371 105.482 524.305 105.662 524.172C105.846 524.043 105.99 523.824 106.096 523.516L106.301 522.971L104.074 516.66H105.609L106.951 520.961ZM113.707 523V514.469H116.631C117.596 514.469 118.33 514.662 118.834 515.049C119.338 515.436 119.59 516.012 119.59 516.777C119.59 517.168 119.484 517.52 119.273 517.832C119.062 518.145 118.754 518.387 118.348 518.559C118.809 518.684 119.164 518.92 119.414 519.268C119.668 519.611 119.795 520.025 119.795 520.51C119.795 521.311 119.537 521.926 119.021 522.355C118.51 522.785 117.775 523 116.818 523H113.707ZM115.189 519.15V521.816H116.836C117.301 521.816 117.664 521.701 117.926 521.471C118.188 521.24 118.318 520.92 118.318 520.51C118.318 519.623 117.865 519.17 116.959 519.15H115.189ZM115.189 518.061H116.643C117.104 518.061 117.463 517.957 117.721 517.75C117.982 517.539 118.113 517.242 118.113 516.859C118.113 516.438 117.992 516.133 117.75 515.945C117.512 515.758 117.139 515.664 116.631 515.664H115.189V518.061ZM122.654 523H121.23V516.66H122.654V523ZM121.143 515.014C121.143 514.795 121.211 514.613 121.348 514.469C121.488 514.324 121.688 514.252 121.945 514.252C122.203 514.252 122.402 514.324 122.543 514.469C122.684 514.613 122.754 514.795 122.754 515.014C122.754 515.229 122.684 515.408 122.543 515.553C122.402 515.693 122.203 515.764 121.945 515.764C121.688 515.764 121.488 515.693 121.348 515.553C121.211 515.408 121.143 515.229 121.143 515.014ZM125.725 523H124.301V514H125.725V523ZM128.795 523H127.371V514H128.795V523ZM133.904 521.277C133.904 521.023 133.799 520.83 133.588 520.697C133.381 520.564 133.035 520.447 132.551 520.346C132.066 520.244 131.662 520.115 131.338 519.959C130.627 519.615 130.271 519.117 130.271 518.465C130.271 517.918 130.502 517.461 130.963 517.094C131.424 516.727 132.01 516.543 132.721 516.543C133.479 516.543 134.09 516.73 134.555 517.105C135.023 517.48 135.258 517.967 135.258 518.564H133.834C133.834 518.291 133.732 518.064 133.529 517.885C133.326 517.701 133.057 517.609 132.721 517.609C132.408 517.609 132.152 517.682 131.953 517.826C131.758 517.971 131.66 518.164 131.66 518.406C131.66 518.625 131.752 518.795 131.936 518.916C132.119 519.037 132.49 519.16 133.049 519.285C133.607 519.406 134.045 519.553 134.361 519.725C134.682 519.893 134.918 520.096 135.07 520.334C135.227 520.572 135.305 520.861 135.305 521.201C135.305 521.771 135.068 522.234 134.596 522.59C134.123 522.941 133.504 523.117 132.738 523.117C132.219 523.117 131.756 523.023 131.35 522.836C130.943 522.648 130.627 522.391 130.4 522.062C130.174 521.734 130.061 521.381 130.061 521.002H131.443C131.463 521.338 131.59 521.598 131.824 521.781C132.059 521.961 132.369 522.051 132.756 522.051C133.131 522.051 133.416 521.98 133.611 521.84C133.807 521.695 133.904 521.508 133.904 521.277Z" fill="white"/>
<path id="Rectangle 7_3" d="M15 567C15 561.477 19.4772 557 25 557H65C70.5228 557 75 561.477 75 567V603C75 608.523 70.5228 613 65 613H25C19.4772 613 15 608.523 15 603V567Z" fill="white" fill-opacity="0.2"/>
<path id="Tickets" d="M32.0312 581.664H29.3711V589H27.9004V581.664H25.2637V580.469H32.0312V581.664ZM34.5332 589H33.1094V582.66H34.5332V589ZM33.0215 581.014C33.0215 580.795 33.0898 580.613 33.2266 580.469C33.3672 580.324 33.5664 580.252 33.8242 580.252C34.082 580.252 34.2812 580.324 34.4219 580.469C34.5625 580.613 34.6328 580.795 34.6328 581.014C34.6328 581.229 34.5625 581.408 34.4219 581.553C34.2812 581.693 34.082 581.764 33.8242 581.764C33.5664 581.764 33.3672 581.693 33.2266 581.553C33.0898 581.408 33.0215 581.229 33.0215 581.014ZM38.6934 587.98C39.0488 587.98 39.3438 587.877 39.5781 587.67C39.8125 587.463 39.9375 587.207 39.9531 586.902H41.2949C41.2793 587.297 41.1562 587.666 40.9258 588.01C40.6953 588.35 40.3828 588.619 39.9883 588.818C39.5938 589.018 39.168 589.117 38.7109 589.117C37.8242 589.117 37.1211 588.83 36.6016 588.256C36.082 587.682 35.8223 586.889 35.8223 585.877V585.73C35.8223 584.766 36.0801 583.994 36.5957 583.416C37.1113 582.834 37.8145 582.543 38.7051 582.543C39.459 582.543 40.0723 582.764 40.5449 583.205C41.0215 583.643 41.2715 584.219 41.2949 584.934H39.9531C39.9375 584.57 39.8125 584.271 39.5781 584.037C39.3477 583.803 39.0527 583.686 38.6934 583.686C38.2324 583.686 37.877 583.854 37.627 584.189C37.377 584.521 37.25 585.027 37.2461 585.707V585.936C37.2461 586.623 37.3691 587.137 37.6152 587.477C37.8652 587.812 38.2246 587.98 38.6934 587.98ZM44.4297 586.281L43.7969 586.932V589H42.373V580H43.7969V585.191L44.2422 584.635L45.9941 582.66H47.7051L45.3496 585.303L47.957 589H46.3105L44.4297 586.281ZM51.3145 589.117C50.4121 589.117 49.6797 588.834 49.1172 588.268C48.5586 587.697 48.2793 586.939 48.2793 585.994V585.818C48.2793 585.186 48.4004 584.621 48.6426 584.125C48.8887 583.625 49.2324 583.236 49.6738 582.959C50.1152 582.682 50.6074 582.543 51.1504 582.543C52.0137 582.543 52.6797 582.818 53.1484 583.369C53.6211 583.92 53.8574 584.699 53.8574 585.707V586.281H49.7148C49.7578 586.805 49.9316 587.219 50.2363 587.523C50.5449 587.828 50.9316 587.98 51.3965 587.98C52.0488 587.98 52.5801 587.717 52.9902 587.189L53.7578 587.922C53.5039 588.301 53.1641 588.596 52.7383 588.807C52.3164 589.014 51.8418 589.117 51.3145 589.117ZM51.1445 583.686C50.7539 583.686 50.4375 583.822 50.1953 584.096C49.957 584.369 49.8047 584.75 49.7383 585.238H52.4512V585.133C52.4199 584.656 52.293 584.297 52.0703 584.055C51.8477 583.809 51.5391 583.686 51.1445 583.686ZM56.752 581.119V582.66H57.8711V583.715H56.752V587.254C56.752 587.496 56.7988 587.672 56.8926 587.781C56.9902 587.887 57.1621 587.939 57.4082 587.939C57.5723 587.939 57.7383 587.92 57.9062 587.881V588.982C57.582 589.072 57.2695 589.117 56.9688 589.117C55.875 589.117 55.3281 588.514 55.3281 587.307V583.715H54.2852V582.66H55.3281V581.119H56.752ZM62.5176 587.277C62.5176 587.023 62.4121 586.83 62.2012 586.697C61.9941 586.564 61.6484 586.447 61.1641 586.346C60.6797 586.244 60.2754 586.115 59.9512 585.959C59.2402 585.615 58.8848 585.117 58.8848 584.465C58.8848 583.918 59.1152 583.461 59.5762 583.094C60.0371 582.727 60.623 582.543 61.334 582.543C62.0918 582.543 62.7031 582.73 63.168 583.105C63.6367 583.48 63.8711 583.967 63.8711 584.564H62.4473C62.4473 584.291 62.3457 584.064 62.1426 583.885C61.9395 583.701 61.6699 583.609 61.334 583.609C61.0215 583.609 60.7656 583.682 60.5664 583.826C60.3711 583.971 60.2734 584.164 60.2734 584.406C60.2734 584.625 60.3652 584.795 60.5488 584.916C60.7324 585.037 61.1035 585.16 61.6621 585.285C62.2207 585.406 62.6582 585.553 62.9746 585.725C63.2949 585.893 63.5312 586.096 63.6836 586.334C63.8398 586.572 63.918 586.861 63.918 587.201C63.918 587.771 63.6816 588.234 63.209 588.59C62.7363 588.941 62.1172 589.117 61.3516 589.117C60.832 589.117 60.3691 589.023 59.9629 588.836C59.5566 588.648 59.2402 588.391 59.0137 588.062C58.7871 587.734 58.6738 587.381 58.6738 587.002H60.0566C60.0762 587.338 60.2031 587.598 60.4375 587.781C60.6719 587.961 60.9824 588.051 61.3691 588.051C61.7441 588.051 62.0293 587.98 62.2246 587.84C62.4199 587.695 62.5176 587.508 62.5176 587.277Z" fill="#ffffff"/>
</g>
<defs>
<clipPath id="clip0">
<rect width="150" height="620" fill="white"/>
</clipPath>
</defs>
</svg>
