<svg xmlns="http://www.w3.org/2000/svg" xmlns:xlink="http://www.w3.org/1999/xlink" width="360" height="720.001" viewBox="0 0 360 720.001">
  <defs>
    <linearGradient id="linear-gradient" x1="0.5" x2="0.5" y2="1" gradientUnits="objectBoundingBox">
      <stop offset="0" stop-color="#daff6e"/>
      <stop offset="1" stop-color="#454545"/>
    </linearGradient>
    <linearGradient id="linear-gradient-2" x1="0.5" x2="0.5" y2="1" gradientUnits="objectBoundingBox">
      <stop offset="0" stop-color="#fff"/>
      <stop offset="1" stop-color="#f8fbff"/>
    </linearGradient>
    <linearGradient id="linear-gradient-3" x1="0.5" x2="0.5" y2="1" gradientUnits="objectBoundingBox">
      <stop offset="0" stop-color="#fff"/>
      <stop offset="1" stop-color="#e5e5e5"/>
    </linearGradient>
  </defs>
  <g id="iPhone_X_-_Light" data-name="iPhone X - Light" transform="translate(-181 -73.998)">
    <path id="Subtraction_16" data-name="Subtraction 16" d="M-16014.569-1202h-257.861a47.137,47.137,0,0,1-18.515-3.75,47.4,47.4,0,0,1-15.121-10.226,47.551,47.551,0,0,1-10.194-15.168,47.553,47.553,0,0,1-3.738-18.575v-624.557a47.558,47.558,0,0,1,3.738-18.576,47.561,47.561,0,0,1,10.194-15.17,47.4,47.4,0,0,1,15.121-10.228,47.127,47.127,0,0,1,18.515-3.751h257.861a47.139,47.139,0,0,1,18.516,3.751,47.419,47.419,0,0,1,15.121,10.228,47.593,47.593,0,0,1,10.194,15.17,47.56,47.56,0,0,1,3.738,18.576v624.557a47.555,47.555,0,0,1-3.738,18.575,47.583,47.583,0,0,1-10.194,15.168,47.42,47.42,0,0,1-15.121,10.226A47.149,47.149,0,0,1-16014.569-1202Zm-256.977-710a37.771,37.771,0,0,0-14.969,3.063,38.3,38.3,0,0,0-12.223,8.354,38.872,38.872,0,0,0-8.242,12.39,39.175,39.175,0,0,0-3.022,15.172v622.038a39.185,39.185,0,0,0,3.022,15.175,38.866,38.866,0,0,0,8.242,12.391,38.3,38.3,0,0,0,12.223,8.354,37.773,37.773,0,0,0,14.969,3.063h256.093a37.765,37.765,0,0,0,14.968-3.063,38.284,38.284,0,0,0,12.223-8.354,38.866,38.866,0,0,0,8.242-12.391,39.185,39.185,0,0,0,3.022-15.175v-622.038a39.175,39.175,0,0,0-3.022-15.172,38.872,38.872,0,0,0-8.242-12.39,38.286,38.286,0,0,0-12.223-8.354,37.763,37.763,0,0,0-14.968-3.063Z" transform="translate(16504 1996)" fill="url(#linear-gradient)"/>
    <path id="Subtraction_17" data-name="Subtraction 17" d="M-16023.723-1222h-259.554a36.388,36.388,0,0,1-14.294-2.9,36.608,36.608,0,0,1-11.674-7.9,36.727,36.727,0,0,1-7.869-11.711,36.707,36.707,0,0,1-2.886-14.341v-626.314a36.713,36.713,0,0,1,2.886-14.341,36.738,36.738,0,0,1,7.869-11.712,36.606,36.606,0,0,1,11.674-7.9,36.385,36.385,0,0,1,14.294-2.9h259.554a36.385,36.385,0,0,1,14.294,2.9,36.606,36.606,0,0,1,11.674,7.9,36.738,36.738,0,0,1,7.869,11.712,36.713,36.713,0,0,1,2.886,14.341v626.314a36.707,36.707,0,0,1-2.886,14.341,36.727,36.727,0,0,1-7.869,11.711,36.608,36.608,0,0,1-11.674,7.9A36.388,36.388,0,0,1-16023.723-1222Zm-251.37-686.5c-17.318,0-31.407,14.331-31.407,31.947v609.1c0,17.616,14.089,31.947,31.407,31.947h243.187c17.317,0,31.406-14.331,31.406-31.947v-609.1c0-17.616-14.089-31.947-31.406-31.947h-32.05l-.041,0a5.907,5.907,0,0,0-4.62,4.665c-.138.621-.281,1.414-.442,2.31-.287,1.621-.68,3.842-1.265,6.057a17.892,17.892,0,0,1-3.568,6.914,14.059,14.059,0,0,1-11.021,4.9c-2.191.021-47.458.053-85.221.053-30.692,0-47.91-.018-51.173-.053a14.059,14.059,0,0,1-11.021-4.9,17.87,17.87,0,0,1-3.571-6.914c-.564-2.148-.948-4.291-1.258-6.013l0-.012-.006-.033v-.021l-.025-.142-.011-.059c-.148-.82-.277-1.528-.4-2.089a6.109,6.109,0,0,0-4.657-4.665l-.041,0h-32.79Z" transform="translate(16514 2006)" fill="url(#linear-gradient-2)"/>
    <g id="Buttons_and_ear_piece" data-name="Buttons and ear piece">
      <g id="Button" transform="translate(536 237.351)">
        <g id="Group_39" data-name="Group 39">
          <path id="Rectangle_21" data-name="Rectangle 21" d="M0,0H3A2,2,0,0,1,5,2V94a2,2,0,0,1-2,2H0a0,0,0,0,1,0,0V0A0,0,0,0,1,0,0Z" fill="url(#linear-gradient-3)"/>
          <path id="Rectangle_101" data-name="Rectangle 101" d="M0,0H3A2,2,0,0,1,5,2V94a2,2,0,0,1-2,2H0a0,0,0,0,1,0,0V0A0,0,0,0,1,0,0Z" fill="#454545"/>
        </g>
      </g>
      <g id="Button-2" data-name="Button" transform="translate(181 222.5)">
        <path id="Rectangle_28" data-name="Rectangle 28" d="M2,0H5A0,0,0,0,1,5,0V60a0,0,0,0,1,0,0H2a2,2,0,0,1-2-2V2A2,2,0,0,1,2,0Z" fill="url(#linear-gradient-3)"/>
        <path id="Rectangle_103" data-name="Rectangle 103" d="M0,0H3A2,2,0,0,1,5,2V58a2,2,0,0,1-2,2H0a0,0,0,0,1,0,0V0A0,0,0,0,1,0,0Z" transform="translate(5 60) rotate(180)" fill="#454545"/>
      </g>
      <g id="Button-3" data-name="Button" transform="translate(181 286.85)">
        <path id="Rectangle_29" data-name="Rectangle 29" d="M2,0H5A0,0,0,0,1,5,0V60a0,0,0,0,1,0,0H2a2,2,0,0,1-2-2V2A2,2,0,0,1,2,0Z" fill="url(#linear-gradient-3)"/>
        <path id="Rectangle_104" data-name="Rectangle 104" d="M0,0H3A2,2,0,0,1,5,2V58a2,2,0,0,1-2,2H0a0,0,0,0,1,0,0V0A0,0,0,0,1,0,0Z" transform="translate(5 60) rotate(180)" fill="#454545"/>
      </g>
      <g id="Button-4" data-name="Button" transform="translate(181 191)">
        <path id="Rectangle_31" data-name="Rectangle 31" d="M1,0H5A0,0,0,0,1,5,0V32a0,0,0,0,1,0,0H1a1,1,0,0,1-1-1V1A1,1,0,0,1,1,0Z" fill="url(#linear-gradient-3)"/>
        <path id="Rectangle_149" data-name="Rectangle 149" d="M0,0H4A1,1,0,0,1,5,1V31a1,1,0,0,1-1,1H0a0,0,0,0,1,0,0V0A0,0,0,0,1,0,0Z" transform="translate(5 32) rotate(180)" fill="#454545"/>
      </g>
      <g id="Camera" transform="translate(405.482 99)">
        <ellipse id="Ellipse_7" data-name="Ellipse 7" cx="7.5" cy="7.5" rx="7.5" ry="7.5" transform="translate(0 0)" fill="#454545"/>
        <circle id="Ellipse_8" data-name="Ellipse 8" cx="6.5" cy="6.5" r="6.5" transform="translate(1 1)" fill="#dce3f2"/>
        <ellipse id="Ellipse_10" data-name="Ellipse 10" cx="4.5" cy="4.5" rx="4.5" ry="4.5" transform="translate(3 3)" fill="#454545"/>
        <ellipse id="Ellipse_9" data-name="Ellipse 9" cx="1.5" cy="1" rx="1.5" ry="1" transform="translate(6 3)" fill="#fff"/>
      </g>
      <path id="Ear_Piece" data-name="Ear Piece" d="M4,.5H59a3.5,3.5,0,0,1,0,7H4a3.5,3.5,0,0,1,0-7Z" transform="translate(329.095 103)" fill="#454545" stroke="#dce3f2" stroke-linecap="round" stroke-linejoin="round" stroke-width="1"/>
    </g>
    <g id="Screen" transform="translate(208 98)" fill="none" stroke-linecap="round" stroke-linejoin="round">
      <path d="M274.093,672H30.907C13.865,672,0,657.892,0,640.552V31.449C0,14.108,13.865,0,30.907,0H63.654a5.591,5.591,0,0,1,4.254,4.279c.134.6.274,1.383.435,2.289.312,1.745.7,3.91,1.274,6.1.744,2.83,4.03,12.072,15.07,12.188,4.165.044,30.129.053,51.177.053,38.719,0,83.147-.031,85.226-.053,11.041-.116,14.326-9.358,15.07-12.188.577-2.192.964-4.36,1.275-6.1.163-.911.3-1.69.434-2.285A5.413,5.413,0,0,1,242.086,0h32.007C291.135,0,305,14.108,305,31.449v609.1C305,657.892,291.135,672,274.093,672Z" stroke="none"/>
      <path d="M 274.0928649902344 671.9998168945312 C 291.1348876953125 671.9998168945312 304.9994506835938 657.8922119140625 304.9994506835938 640.5517578125 L 304.9994506835938 31.44882583618164 C 304.9994506835938 14.10790824890137 291.1348876953125 -8.219401024689432e-06 274.0928649902344 -8.219401024689432e-06 L 242.0860443115234 -8.219401024689432e-06 C 239.5840454101562 0.421825110912323 238.2511291503906 2.568741798400879 237.869873046875 4.279075145721436 C 237.7372894287109 4.874325275421143 237.5981292724609 5.6527419090271 237.4354553222656 6.563908576965332 C 237.1243743896484 8.305741310119629 236.7373809814453 10.47349166870117 236.1607055664062 12.66582489013672 C 235.4166259765625 15.49582481384277 232.1307983398438 24.73832511901855 221.0902862548828 24.85415840148926 C 219.0117034912109 24.87599182128906 174.5837097167969 24.90707588195801 135.8642883300781 24.90707588195801 C 114.8162078857422 24.90707588195801 88.85187530517578 24.89790916442871 84.68729400634766 24.85415840148926 C 73.64671325683594 24.73832511901855 70.36087799072266 15.49582481384277 69.61687469482422 12.66582489013672 C 69.04113006591797 10.47849178314209 68.65462493896484 8.31357479095459 68.34304046630859 6.568408489227295 C 68.18112945556641 5.661825180053711 68.04129028320312 4.877825260162354 67.90762329101562 4.279075145721436 C 67.51187896728516 2.506658554077148 66.011962890625 0.4116584360599518 63.65396118164062 -8.219401024689432e-06 L 30.90654373168945 -8.219401024689432e-06 C 13.86454296112061 -8.219401024689432e-06 4.341634121374227e-05 14.10790824890137 4.341634121374227e-05 31.44882583618164 L 4.341634121374227e-05 640.5517578125 C 4.341634121374227e-05 657.8922119140625 13.86454296112061 671.9998168945312 30.90654373168945 671.9998168945312 L 274.0928649902344 671.9998168945312 M 274.0928649902344 672.9998168945312 L 30.90654373168945 672.9998168945312 C 13.31321048736572 672.9998168945312 -0.9999566078186035 658.4436645507812 -0.9999566078186035 640.5517578125 L -0.9999566078186035 31.44882583618164 C -0.9999566078186035 13.55649185180664 13.31321048736572 -1.000008225440979 30.90654373168945 -1.000008225440979 L 63.65396118164062 -1.000008225440979 C 63.71162796020508 -1.000008225440979 63.76912689208984 -0.9950082302093506 63.82595825195312 -0.9850915670394897 C 65.12904357910156 -0.7575915455818176 66.31612396240234 -0.08525822311639786 67.25895690917969 0.9592418074607849 C 68.05754089355469 1.843908429145813 68.63446044921875 2.945491790771484 68.88362884521484 4.061158657073975 C 69.02104187011719 4.676658630371094 69.16146087646484 5.463075160980225 69.32404327392578 6.373575210571289 L 69.32746124267578 6.392575263977051 C 69.63545989990234 8.117491722106934 70.01854705810547 10.26332473754883 70.58396148681641 12.41124153137207 C 70.88837432861328 13.56932544708252 71.83545684814453 16.54140853881836 74.05037689208984 19.12724113464355 C 76.69721221923828 22.21749114990234 80.279541015625 23.80782508850098 84.69779205322266 23.8542423248291 C 88.85671234130859 23.89790916442871 114.8178787231445 23.90707588195801 135.8642883300781 23.90707588195801 C 174.578369140625 23.90707588195801 219.0009613037109 23.87607574462891 221.0797882080078 23.8542423248291 C 225.498046875 23.80782508850098 229.0802917480469 22.21749114990234 231.7272033691406 19.12724113464355 C 233.9419555664062 16.5414924621582 234.8891296386719 13.56932544708252 235.1935424804688 12.41157531738281 C 235.7595367431641 10.25982475280762 236.1425476074219 8.115408897399902 236.4502868652344 6.392324924468994 C 236.6144561767578 5.472741603851318 236.7556304931641 4.682158470153809 236.893798828125 4.061658382415771 C 237.3426208496094 2.048241853713989 238.9281311035156 -0.4816748797893524 241.9197998046875 -0.9860915541648865 C 241.9747161865234 -0.9953415393829346 242.0303802490234 -1.000008225440979 242.0860443115234 -1.000008225440979 L 274.0928649902344 -1.000008225440979 C 291.6862182617188 -1.000008225440979 305.9994506835938 13.55649185180664 305.9994506835938 31.44882583618164 L 305.9994506835938 640.5517578125 C 305.9994506835938 658.4436645507812 291.6862182617188 672.9998168945312 274.0928649902344 672.9998168945312 Z" stroke="none" fill="#d7dee9"/>
    </g>
  </g>
</svg>
