<svg xmlns="http://www.w3.org/2000/svg" width="39" height="28" viewBox="0 0 39 28">
  <g id="Qoute" transform="translate(1 -13.781)">
    <path id="Path_3075" data-name="Path 3075" d="M64.826,27.1a14.666,14.666,0,0,1,5.506-5.266,2.591,2.591,0,0,0,1.313-2.208,2.531,2.531,0,0,0-3.558-2.336C63.174,19.46,55,24.853,55,36.022A9,9,0,1,0,64.826,27.1Z" transform="translate(-35 -3.287)" fill="#daff6e"/>
    <path id="Path_3076" data-name="Path 3076" d="M12.284,27.1a14.666,14.666,0,0,1,5.506-5.266A2.591,2.591,0,0,0,19.1,19.63a2.531,2.531,0,0,0-3.558-2.336C10.674,19.46,2.5,24.853,2.5,36.022A9,9,0,1,0,12.284,27.1Z" transform="translate(-3.5 -3.287)" fill="#daff6e"/>
  </g>
</svg>
