<svg width="1002" height="660" viewBox="0 0 1002 660" fill="none" xmlns="http://www.w3.org/2000/svg">
<path d="M0 30H838.473C860.361 30 881.352 40.5357 896.828 59.2893C912.305 78.043 921 103.478 921 130V530C921 556.522 912.305 581.957 896.828 600.711C881.352 619.464 860.361 630 838.473 630H0V30Z" fill="white"/>
<path d="M101 0.5H901C955.952 0.5 1000.5 45.0477 1000.5 100V560C1000.5 614.952 955.952 659.5 901 659.5H101C46.0477 659.5 1.5 614.952 1.5 560V100C1.5 45.0477 46.0477 0.5 101 0.5Z" stroke="#454545"/>
<path d="M1002 281.5V378.5C1002 379.328 1001.33 380 1000.5 380C999.672 380 999 379.328 999 378.5V281.5C999 280.672 999.672 280 1000.5 280C1001.33 280 1002 280.672 1002 281.5Z" fill="#daff6e" width="4"/>
</svg>
