<svg xmlns="http://www.w3.org/2000/svg" width="120" height="120" viewBox="0 0 120 120">
  <g id="Step_1_icon" data-name="Step 1 icon" transform="translate(0.1)">
    <circle id="Ellipse_114" data-name="Ellipse 114" cx="60" cy="60" r="60" transform="translate(-0.1)" fill="#daff6e" opacity="0.2"/>
    <circle id="Ellipse_280" data-name="Ellipse 280" cx="25" cy="25" r="25" transform="translate(19.9 25)" fill="#D788C8" opacity="0.5"/>
    <circle id="Ellipse_281" data-name="Ellipse 281" cx="25" cy="25" r="25" transform="translate(49.9 45)" fill="#454545" opacity="0.7"/>
    <path id="Icon1" d="M39.912,12.814a1.148,1.148,0,0,0-.588-.589L30.148,8.4l.882-2.118a4.446,4.446,0,0,0,0-3.47A4.717,4.717,0,0,0,28.618.343a4.5,4.5,0,0,0-5.882,2.412l-.883,2.117L12.677,1.049a1.153,1.153,0,0,0-1.471.588L6.971,11.873a1.12,1.12,0,0,0,.588,1.47l3.118,1.294a2.132,2.132,0,0,1,1.235,1.236,2.286,2.286,0,0,1,0,1.764,2.135,2.135,0,0,1-1.235,1.236,2.3,2.3,0,0,1-1.765,0l-3.117-1.3a1.152,1.152,0,0,0-1.471.589L.088,28.4a1.121,1.121,0,0,0,.588,1.471L9.853,33.7l-.882,2.118a4.437,4.437,0,0,0,0,3.47,4.717,4.717,0,0,0,2.412,2.471,4.665,4.665,0,0,0,1.706.353,4.543,4.543,0,0,0,4.176-2.765l.883-2.118,9.176,3.824a1.153,1.153,0,0,0,1.471-.588L33.03,30.225a1.12,1.12,0,0,0-.588-1.47l-3.118-1.294a2.132,2.132,0,0,1-1.235-1.236,2.286,2.286,0,0,1,0-1.764,2.135,2.135,0,0,1,1.235-1.236,2.3,2.3,0,0,1,1.765,0l3.117,1.3a1.152,1.152,0,0,0,1.471-.589L39.912,13.7A1.14,1.14,0,0,0,39.912,12.814ZM34.03,21.99l-2.118-.882a4.437,4.437,0,0,0-3.47,0,4.714,4.714,0,0,0-2.471,2.412,4.437,4.437,0,0,0,0,3.47,4.717,4.717,0,0,0,2.412,2.471l2.117.882-3.411,8.118-9.177-3.824a1.12,1.12,0,0,0-1.47.588l-1.294,3.118a2.294,2.294,0,0,1-3,1.235,2.132,2.132,0,0,1-1.236-1.235,2.3,2.3,0,0,1,0-1.765l1.294-3.117a1.12,1.12,0,0,0-.588-1.471L2.442,28.167l3.411-8.118,2.118.882a4.44,4.44,0,0,0,3.471,0,4.714,4.714,0,0,0,2.47-2.411,4.44,4.44,0,0,0,0-3.471A4.714,4.714,0,0,0,11.5,12.578L9.383,11.7l3.412-8.118L21.971,7.4a1.121,1.121,0,0,0,1.471-.588L24.736,3.7a2.294,2.294,0,0,1,3-1.235A2.13,2.13,0,0,1,28.971,3.7a2.3,2.3,0,0,1,0,1.765L27.618,8.52a1.12,1.12,0,0,0,.588,1.47l9.177,3.824Z" transform="translate(47.415 86.589) rotate(-112.5)" fill="#daff6e"/>
  </g>
</svg>
