<svg id="Step_3_icon" data-name="Step 3 icon" xmlns="http://www.w3.org/2000/svg" width="120" height="120" viewBox="0 0 120 120">
  <circle id="Ellipse_116" data-name="Ellipse 116" cx="60" cy="60" r="60" fill="#daff6e" opacity="0.2"/>
  
  <circle id="Ellipse_284" data-name="Ellipse 284" cx="25" cy="25" r="25" transform="translate(20 25)" fill="#D788C8" opacity="0.5"/>
  <circle id="Ellipse_285" data-name="Ellipse 285" cx="25" cy="25" r="25" transform="translate(50 45)" fill="#454545" opacity="0.7"/>
  <g id="Icon3_" data-name="Icon3 " transform="translate(36 83) rotate(-90)">
    <path id="Path_3617" data-name="Path 3617" d="M24.615,0a6.17,6.17,0,0,0-6.154,6.154,6.068,6.068,0,0,0,.866,3.077H10.256a1.025,1.025,0,0,0-1.025,1.025v9.055a6.066,6.066,0,0,0-3.077-.849,6.153,6.153,0,1,0,0,12.307A6.08,6.08,0,0,0,9.231,29.9v9.07A1.025,1.025,0,0,0,10.256,40H38.974A1.026,1.026,0,0,0,40,38.974V27.692a1.026,1.026,0,0,0-1.843-.625,4.094,4.094,0,1,1,0-4.92A1.026,1.026,0,0,0,40,21.538V10.256a1.025,1.025,0,0,0-1.026-1.025H29.9a6.076,6.076,0,0,0,.865-3.077A6.169,6.169,0,0,0,24.615,0Zm0,2.051a4.088,4.088,0,0,1,4.1,4.1,4.045,4.045,0,0,1-1.635,3.269,1.026,1.026,0,0,0,.609,1.859H37.949v8.029a6.066,6.066,0,0,0-3.077-.849,6.153,6.153,0,1,0,0,12.307,6.079,6.079,0,0,0,3.077-.865v8.045H11.282V27.692a1.026,1.026,0,0,0-1.843-.625,4.094,4.094,0,1,1,0-4.92,1.026,1.026,0,0,0,1.843-.609V11.282H21.538a1.026,1.026,0,0,0,.609-1.859,4.044,4.044,0,0,1-1.634-3.269A4.087,4.087,0,0,1,24.615,2.051Z" fill="#daff6e"/>
  </g>
</svg>
