<svg id="Step_2_icon" data-name="Step 2 icon" xmlns="http://www.w3.org/2000/svg" width="120" height="120" viewBox="0 0 120 120">
  <circle id="Ellipse_115" data-name="Ellipse 115" cx="60" cy="60" r="60" fill="#daff6e" opacity="0.2"/>
  <circle id="Ellipse_282" data-name="Ellipse 282" cx="25" cy="25" r="25" transform="translate(20 25)" fill="#D788C8" opacity="0.5"/>
  <circle id="Ellipse_283" data-name="Ellipse 283" cx="25" cy="25" r="25" transform="translate(50 45)" fill="#454545" opacity="0.7"/>
  <g id="Icon2" transform="translate(46.271 82.729) rotate(-90)">
    <path id="Path_3619" data-name="Path 3619" d="M34.19,2.011a.475.475,0,0,1,.5.5v9.7a.5.5,0,0,0,.352.5h.1a.91.91,0,0,0,.453-.2,5.886,5.886,0,0,1,4.374-2.263c2.212,0,3.017,2.112,3.017,3.922s-.8,3.922-3.017,3.922A5.89,5.89,0,0,1,35.6,15.838a.449.449,0,0,0-.4-.251.187.187,0,0,0-.151.05.6.6,0,0,0-.352.5v9.8a.475.475,0,0,1-.5.5h-8.5a6.776,6.776,0,0,0,1.71-4.274c0-2.413-1.961-4.022-4.927-4.022s-4.928,1.609-4.928,4.022a7.065,7.065,0,0,0,1.71,4.274H10.81a.475.475,0,0,1-.5-.5V16.19a.5.5,0,0,0-.352-.5H9.8c-.151,0-.352.05-.4.2a5.891,5.891,0,0,1-4.374,2.263c-2.213,0-3.017-2.112-3.017-3.922s.8-3.922,3.017-3.922A5.891,5.891,0,0,1,9.4,12.57a.457.457,0,0,0,.4.2h.151a.607.607,0,0,0,.352-.5V2.514a.475.475,0,0,1,.5-.5h8.346a7.07,7.07,0,0,0-1.709,4.274c0,2.413,1.961,4.022,4.927,4.022S27.3,8.7,27.3,6.285a7.064,7.064,0,0,0-1.709-4.274h8.6m-15.034,0h0M34.19,0h-8.6a1.941,1.941,0,0,0-1.81,1.156,2.1,2.1,0,0,0,.251,2.162A5.093,5.093,0,0,1,25.29,6.285c0,1.86-2.212,2.011-2.916,2.011s-2.916-.151-2.916-2.011a5,5,0,0,1,1.207-2.967,2.012,2.012,0,0,0,.5-1.307A2.017,2.017,0,0,0,19.156,0H10.81A2.489,2.489,0,0,0,8.3,2.514V9.151A7.71,7.71,0,0,0,5.028,8.3C2.061,8.3,0,10.76,0,14.229s2.061,5.933,5.028,5.933A7.045,7.045,0,0,0,8.3,19.307v6.637a2.489,2.489,0,0,0,2.514,2.514h8.447a1.942,1.942,0,0,0,1.81-1.156,2.1,2.1,0,0,0-.252-2.162,5.093,5.093,0,0,1-1.257-2.967c0-1.86,2.213-2.011,2.917-2.011s2.916.151,2.916,2.011a4.775,4.775,0,0,1-1.207,2.967,2,2,0,0,0,1.508,3.318h8.5A2.489,2.489,0,0,0,36.7,25.944V19.257a7.71,7.71,0,0,0,3.268.855c2.966,0,5.028-2.464,5.028-5.933s-2.062-5.933-5.028-5.933A7.033,7.033,0,0,0,36.7,9.1V2.514A2.489,2.489,0,0,0,34.19,0Z" fill="#daff6e"/>
  </g>
</svg>
