<?xml version="1.0" encoding="iso-8859-1"?>
<!-- Generator: Adobe Illustrator 19.0.0, SVG Export Plug-In . SVG Version: 6.00 Build 0)  -->
<svg version="1.1" id="Capa_1" xmlns="http://www.w3.org/2000/svg" xmlns:xlink="http://www.w3.org/1999/xlink" x="0px" y="0px"
	 viewBox="0 0 511.993 511.993" style="enable-background:new 0 0 511.993 511.993;" xml:space="preserve" fill="#ffffff">
<g>
	<g>
		<path d="M501.039,182.351L329.395,10.707c-14.281-14.281-36.642-14.268-50.911,0l-267.76,267.76
			c-7.026,7.026-10.934,16.675-10.716,26.462c0.205,9.486,4.089,18.237,10.946,24.683l36.558,36.558
			c6.332,6.344,16.349,7.08,23.544,1.761c20.993-15.505,50.211-13.484,67.971,4.722c18.194,18.641,20.408,47.925,5.144,68.122
			c-5.446,7.207-4.746,17.314,1.64,23.7l36.787,36.787c6.845,6.839,16.168,10.729,25.696,10.729c0.253,0,0.513-0.006,0.766-0.012
			c9.486-0.205,18.237-4.083,24.683-10.946l267.525-267.543c7.026-7.02,10.928-16.663,10.716-26.456
			C511.779,197.548,507.902,188.798,501.039,182.351z M304.308,36.102c-0.084,0.048-0.223,0.072-0.338,0.096L291.282,23.51
			L304.308,36.102z M208.059,475.548l-26.601-26.601c16.228-32.897,10.192-74.177-16.536-101.568
			c-26.637-27.271-68.122-33.446-101.833-16.801L36.44,303.934l267.506-267.5l171.613,171.613L208.059,475.548z"/>
	</g>
</g>
<g>
	<g>
		<rect x="232.47" y="75.508" transform="matrix(0.7116 -0.7025 0.7025 0.7116 -4.013 207.3298)" width="36.176" height="66.092"/>
	</g>
</g>
<g>
	<g>
		
			<rect x="385.973" y="228.974" transform="matrix(0.7025 -0.7117 0.7117 0.7025 -66.2688 365.5246)" width="36.184" height="66.102"/>
	</g>
</g>
<g>
	<g>
		
			<rect x="309.356" y="151.88" transform="matrix(0.7071 -0.7071 0.7071 0.7071 -35.0063 285.7649)" width="36.177" height="66.517"/>
	</g>
</g>
<g>
</g>
<g>
</g>
<g>
</g>
<g>
</g>
<g>
</g>
<g>
</g>
<g>
</g>
<g>
</g>
<g>
</g>
<g>
</g>
<g>
</g>
<g>
</g>
<g>
</g>
<g>
</g>
<g>
</g>
</svg>
